<?xml version="1.0" standalone="no"?>
<!DOCTYPE svg PUBLIC "-//W3C//DTD SVG 20010904//EN"
 "http://www.w3.org/TR/2001/REC-SVG-20010904/DTD/svg10.dtd">
<svg version="1.0" xmlns="http://www.w3.org/2000/svg"
 width="454.000000pt" height="408.000000pt" viewBox="0 0 454.000000 408.000000"
 preserveAspectRatio="xMidYMid meet">

<g transform="translate(0.000000,408.000000) scale(0.100000,-0.100000)"
fill="#000000" stroke="none">
<path d="M2820 4029 c150 -19 309 -55 395 -88 28 -11 45 -20 38 -21 -6 0 -24
5 -40 11 -84 32 -253 69 -363 80 -116 11 -388 8 -450 -5 -14 -3 -50 -11 -80
-17 -185 -37 -300 -72 -418 -125 -42 -19 -71 -38 -67 -44 3 -5 -1 -10 -10 -10
-10 0 -15 -7 -13 -17 4 -20 33 -25 33 -6 0 28 46 41 65 18 6 -7 19 -11 28 -8
15 6 15 5 3 -10 -12 -15 -11 -17 8 -17 11 0 21 -4 21 -10 0 -13 -6 -13 -30 0
-13 7 -27 3 -56 -18 -22 -15 -52 -33 -69 -40 -33 -14 -156 -111 -162 -128 -2
-6 14 -11 39 -12 33 -1 49 4 71 23 29 26 40 58 10 34 -14 -12 -16 -12 -11 1 3
9 25 18 54 23 27 5 59 17 71 29 12 11 26 17 32 13 6 -3 11 -1 11 5 0 6 -8 14
-17 17 -14 5 -11 8 12 15 18 4 32 3 36 -3 4 -7 17 -6 38 5 65 34 190 75 291
95 170 34 177 34 370 34 143 -1 210 -6 295 -22 353 -67 686 -251 927 -511 110
-118 186 -218 223 -291 26 -50 41 -59 63 -37 18 18 15 41 -4 34 -12 -5 -14 -1
-9 15 5 15 4 19 -4 15 -7 -5 -11 1 -11 14 0 31 -18 60 -34 54 -7 -3 -19 2 -26
11 -8 10 -9 15 -1 15 6 0 11 7 11 15 0 8 -4 15 -10 15 -5 0 -10 7 -10 15 0 8
-4 15 -8 15 -5 0 -14 11 -20 25 -12 27 -33 52 -92 112 -19 19 -29 32 -22 29 6
-4 12 -2 12 3 0 6 -6 11 -14 11 -19 0 -96 79 -96 98 0 8 -6 12 -14 9 -15 -6
-46 22 -46 40 0 6 6 13 13 16 9 3 7 9 -5 23 -10 10 -21 14 -25 10 -4 -4 -1
-11 7 -16 13 -8 12 -10 -2 -10 -9 0 -28 10 -41 23 -14 12 -35 30 -48 40 l-24
18 30 -6 c26 -5 28 -4 11 6 -11 7 -36 13 -55 15 -20 1 -37 7 -39 13 -2 6 -10
11 -18 11 -8 0 -14 5 -14 11 0 6 -7 9 -15 5 -13 -5 -14 -2 -4 15 12 23 13 22
-19 38 -16 9 -27 9 -36 2 -15 -13 -58 -3 -49 12 4 6 0 8 -10 4 -10 -4 -21 1
-29 12 -7 10 -20 20 -28 24 -13 4 -12 6 1 6 9 1 22 -6 30 -15 9 -11 22 -14 42
-10 25 5 27 3 22 -14 -7 -23 3 -26 19 -6 9 12 23 8 86 -29 41 -24 79 -50 85
-58 5 -8 15 -15 20 -17 17 -5 78 -47 113 -77 22 -20 31 -35 26 -46 -3 -9 -10
-17 -16 -17 -5 0 -6 -5 -3 -10 4 -6 14 -1 25 12 l18 23 89 -90 c143 -145 253
-291 342 -456 35 -65 39 -78 25 -83 -22 -9 -24 -8 -24 9 0 8 -4 15 -9 15 -12
0 -25 -54 -14 -57 23 -8 74 -45 69 -50 -3 -3 -14 1 -24 10 -10 10 -29 17 -41
17 -14 0 -25 7 -28 19 -3 12 -11 17 -23 14 -15 -4 -18 -11 -13 -36 4 -22 3
-28 -6 -23 -6 4 -9 12 -6 17 4 5 -3 9 -14 9 -12 0 -21 5 -21 10 0 6 4 10 10
10 5 0 7 7 3 16 -5 14 -9 13 -24 -7 -10 -13 -19 -19 -19 -12 0 6 5 15 10 18 6
3 10 13 10 21 0 11 -6 14 -22 9 -19 -6 -21 -5 -10 6 23 25 14 63 -26 102 -40
39 -72 42 -72 7 0 -22 -47 -33 -54 -13 -7 17 12 56 23 49 4 -3 8 8 8 25 0 21
-4 28 -14 25 -10 -4 -12 1 -7 22 l7 27 -27 -30 c-14 -16 -26 -25 -26 -18 0 6
5 15 10 18 6 4 7 11 4 17 -4 7 -2 8 4 4 20 -12 13 8 -8 27 -26 22 -80 19 -80
-4 0 -21 -44 -51 -64 -43 -26 10 -18 25 9 18 16 -4 25 -2 25 6 0 6 -10 14 -21
17 -19 5 -21 11 -15 49 3 24 1 44 -4 46 -6 2 -11 19 -13 38 -1 19 -7 33 -12
31 -6 -2 -15 -6 -22 -8 -18 -7 -24 -33 -12 -55 10 -18 9 -20 -5 -15 -23 9 -20
-10 4 -23 20 -11 28 -30 12 -30 -5 0 -17 6 -27 14 -15 11 -19 25 -17 61 1 26
-3 56 -9 67 -10 19 -13 18 -46 -19 -19 -21 -49 -57 -65 -81 -23 -33 -33 -40
-46 -33 -23 12 -47 0 -49 -24 -7 -71 -14 -118 -18 -125 -3 -5 -1 -20 5 -34 7
-19 14 -24 27 -19 13 4 15 3 8 -5 -13 -14 -55 -4 -55 13 0 19 -37 47 -57 43
-12 -2 -18 -12 -18 -28 0 -29 14 -43 31 -29 8 7 21 2 42 -16 19 -16 45 -26 71
-28 55 -4 80 -27 29 -27 -20 0 -38 6 -41 13 -2 6 -8 9 -12 4 -12 -10 26 -36
44 -29 10 4 12 1 6 -8 -6 -10 -3 -11 16 -6 13 4 34 10 47 13 33 8 27 27 -14
46 -27 13 -39 15 -50 6 -14 -11 -34 -5 -34 12 0 5 8 9 18 9 21 0 23 33 4 52
-16 16 -15 53 3 88 13 24 21 29 54 28 36 0 39 -3 60 -51 16 -35 19 -53 12 -60
-8 -8 -11 -6 -11 7 0 9 -5 14 -10 11 -6 -4 -17 -2 -23 4 -17 13 -57 3 -57 -15
0 -17 12 -18 28 -2 15 15 24 6 16 -15 -3 -9 -11 -14 -17 -11 -16 5 -43 -13
-34 -22 4 -5 23 -8 42 -8 19 0 35 -4 35 -9 0 -5 6 -4 13 2 8 6 17 8 20 4 13
-12 7 -42 -10 -52 -12 -7 -14 -13 -7 -18 6 -5 14 -16 17 -27 6 -14 10 -16 21
-6 12 9 21 4 50 -27 22 -24 31 -42 25 -47 -5 -6 -9 -18 -9 -27 0 -10 -4 -20
-8 -23 -5 -3 -9 8 -9 24 0 17 -3 33 -7 37 -10 10 -25 -17 -19 -34 3 -8 -2 -13
-15 -13 -28 0 -37 16 -12 23 21 5 29 47 9 47 -5 0 -23 14 -39 32 -27 29 -31
31 -54 19 -14 -8 -22 -19 -19 -27 3 -8 0 -14 -6 -14 -6 0 -11 5 -11 10 0 15
-21 12 -42 -7 -20 -18 -39 -10 -20 9 17 17 15 28 -3 22 -18 -7 -20 12 -2 20 6
3 3 4 -8 3 -15 -1 -19 3 -18 21 3 24 -16 29 -35 10 -18 -18 -15 -58 5 -58 13
0 14 3 5 12 -13 13 -16 28 -4 28 8 0 32 -48 32 -66 0 -7 -5 -16 -12 -20 -7 -5
-9 -1 -6 13 4 16 0 20 -23 20 -15 0 -27 -3 -26 -6 2 -3 9 -19 17 -35 10 -20
12 -30 4 -33 -6 -2 -9 -15 -6 -28 3 -20 1 -24 -12 -19 -11 4 -16 1 -16 -12 0
-16 -3 -16 -20 6 -21 27 -37 22 -22 -7 5 -10 7 -23 5 -30 -2 -6 3 -13 13 -15
15 -3 14 -5 -3 -27 l-20 -24 -7 27 c-4 15 -4 31 -1 37 11 17 -39 149 -57 149
-4 0 -8 -8 -8 -17 0 -15 -2 -16 -10 -3 -5 9 -5 19 1 26 11 14 72 28 112 27 20
-1 27 4 27 17 0 32 -18 67 -37 74 -14 6 -16 5 -5 -5 6 -7 12 -18 12 -23 0 -6
-5 -5 -12 2 -15 15 -62 16 -53 2 10 -16 -33 -69 -55 -67 -11 1 -20 7 -20 14 0
8 -12 18 -26 23 -33 13 -34 13 -27 -7 5 -12 2 -15 -10 -10 -34 13 -16 -69 22
-101 13 -11 13 -12 1 -6 -8 4 -24 14 -34 23 -18 15 -19 15 -14 -5 4 -14 -1
-25 -14 -33 -25 -15 -38 -5 -15 12 16 12 18 32 4 54 -4 6 -3 14 3 18 14 9 12
26 -2 24 -24 -3 -38 1 -38 10 0 6 15 11 33 13 30 3 32 5 38 51 7 62 34 81 80
57 13 -7 19 -21 19 -44 0 -20 6 -36 14 -39 22 -9 26 3 10 27 -11 18 -12 33 -4
76 6 29 15 59 21 67 9 10 8 17 -1 28 -17 21 -4 32 19 18 18 -12 31 -8 31 8 0
5 -6 6 -12 4 -18 -7 -47 15 -30 22 6 2 12 20 12 38 0 40 41 75 99 84 28 5 37
12 39 29 2 13 1 31 -2 39 -6 14 -10 13 -29 -6 -26 -23 -43 -27 -49 -10 -2 7
-15 1 -32 -14 -26 -24 -113 -57 -150 -57 -23 0 -20 -13 8 -40 32 -29 43 -77
23 -97 -8 -9 -36 -17 -61 -19 -45 -3 -46 -2 -73 44 l-28 47 -3 -30 c-6 -49
-29 -67 -83 -63 l-47 3 19 -24 c23 -29 24 -81 4 -121 -33 -63 -115 -46 -148
32 l-18 39 -30 -25 c-17 -14 -35 -26 -40 -26 -5 0 -9 -6 -9 -14 0 -8 -3 -17
-8 -20 -8 -5 -85 8 -114 19 -14 6 -16 1 -11 -34 6 -45 -6 -67 -45 -82 -15 -6
-31 -5 -44 2 -19 10 -20 9 -16 -15 4 -18 1 -26 -8 -26 -8 0 -14 -7 -14 -15 0
-9 -6 -12 -15 -9 -19 8 -19 -3 -1 -22 21 -20 34 -17 38 9 4 30 24 18 21 -13
-1 -14 0 -19 3 -12 8 18 24 15 22 -5 -1 -10 0 -27 0 -37 2 -19 2 -19 23 0 16
14 23 16 26 6 4 -9 12 -5 28 13 14 14 35 25 49 25 14 0 28 5 31 11 4 6 0 9
-10 7 -10 -2 -20 2 -22 9 -5 14 86 -11 104 -30 10 -9 0 -12 -45 -12 -48 0 -57
-3 -57 -18 0 -10 -6 -22 -14 -26 -7 -5 -11 -13 -8 -18 8 -12 125 3 144 18 18
16 24 8 10 -12 -7 -8 -33 -21 -59 -28 -27 -8 -48 -16 -49 -20 0 -3 -2 -20 -4
-38 -3 -22 2 -38 16 -55 l20 -23 -5 27 c-10 43 12 69 50 62 21 -4 36 -1 47 10
8 9 27 16 41 16 19 0 26 5 26 18 0 32 33 52 82 52 39 0 50 -5 71 -29 17 -20
28 -26 38 -20 25 16 33 9 14 -12 -16 -16 -26 -19 -57 -14 -21 4 -37 3 -36 -2
2 -4 -5 -19 -14 -32 -17 -24 -18 -24 -39 -5 -22 19 -22 19 -15 -1 23 -60 18
-145 -9 -145 -9 0 -12 -6 -9 -15 5 -11 2 -13 -11 -9 -15 6 -16 4 -5 -15 12
-24 5 -45 -9 -23 -4 7 -27 13 -52 15 -46 2 -71 20 -90 66 -9 23 -10 23 -29 6
-11 -10 -20 -23 -19 -29 3 -24 -1 -37 -10 -31 -5 3 -12 1 -16 -5 -9 -14 -42
-13 -47 2 -3 8 -19 1 -44 -19 l-41 -32 -32 20 c-21 13 -31 25 -27 34 18 46 19
50 3 30 -14 -18 -17 -18 -34 -4 -25 21 -116 24 -136 4 -9 -9 -23 -12 -33 -8
-10 3 -3 -7 14 -23 45 -43 66 -104 37 -104 -14 0 -17 5 -19 40 -1 8 -7 16 -14
16 -29 3 -32 4 -32 13 0 12 -43 80 -50 80 -3 0 -18 -16 -34 -35 -22 -27 -26
-38 -17 -47 8 -8 19 -8 39 -1 30 11 52 8 52 -7 0 -6 -4 -8 -9 -5 -5 3 -12 -1
-15 -10 -4 -12 -1 -14 14 -9 24 7 26 -7 5 -25 -11 -9 -12 -16 -4 -26 6 -8 8
-26 4 -44 -4 -18 -3 -30 4 -30 6 0 15 -9 21 -21 9 -16 8 -24 -5 -39 -13 -15
-14 -22 -4 -38 10 -16 7 -26 -20 -66 -18 -25 -36 -46 -41 -46 -14 0 -13 4 11
55 22 46 19 68 -7 58 -10 -4 -12 -9 -4 -18 7 -9 6 -16 -4 -24 -12 -10 -14 -5
-14 26 0 21 5 44 11 52 20 24 -20 44 -75 37 -57 -6 -61 0 -13 20 32 13 40 34
14 34 -5 0 -23 12 -39 27 -22 20 -27 29 -18 35 22 14 -54 -4 -100 -24 -53 -22
-66 -16 -59 29 6 32 4 35 -16 29 -12 -3 -34 -6 -49 -6 -34 0 -36 -13 -5 -29
19 -10 17 -11 -19 -7 -49 5 -66 -4 -68 -35 0 -12 -7 -24 -15 -27 -10 -3 -12 4
-6 37 6 38 -1 52 -18 34 -11 -10 -127 -12 -127 -2 0 5 23 9 51 9 44 0 54 4 77
31 15 18 31 39 36 48 9 14 8 14 -9 1 -20 -17 -47 -19 -57 -6 -4 6 -13 5 -22
-3 -8 -7 -21 -11 -28 -8 -8 4 -7 6 5 6 10 1 17 9 17 21 0 19 4 20 54 14 46 -6
59 -3 84 14 29 21 29 21 64 2 l36 -19 10 41 c6 23 9 45 6 50 -8 12 -38 10 -52
-4 -9 -9 -12 -8 -12 5 0 11 -8 17 -23 17 -13 0 -28 5 -34 11 -8 8 -13 6 -17
-9 -8 -24 -62 -37 -85 -20 -12 9 -11 7 2 -8 17 -21 17 -22 -5 -28 -13 -3 -32
-6 -44 -6 -11 0 -31 -11 -44 -25 l-24 -25 32 6 c37 8 43 -7 11 -29 -13 -9 -16
-17 -10 -22 6 -3 11 -14 11 -23 0 -12 -3 -13 -11 -5 -6 6 -18 9 -26 6 -8 -3
-19 0 -24 8 -13 21 -11 32 6 26 8 -4 17 -2 20 2 3 5 -3 12 -12 15 -9 4 -20 1
-24 -5 -4 -6 -12 -8 -18 -5 -6 4 -14 0 -18 -9 -3 -10 0 -21 7 -25 16 -10 6
-40 -13 -40 -7 0 -20 11 -27 25 -7 14 -18 25 -24 25 -6 0 -17 4 -25 9 -11 7
-8 14 15 34 l29 25 -52 -1 c-51 -2 -78 -19 -47 -31 8 -3 14 -13 14 -22 0 -10
7 -26 16 -35 16 -17 15 -19 -12 -30 -16 -7 -40 -12 -54 -11 -23 0 -23 0 -3 -5
13 -2 23 -11 23 -19 0 -21 27 -17 47 6 18 21 43 27 43 10 0 -5 -8 -13 -17 -19
-17 -9 -16 -11 1 -30 19 -21 19 -22 0 -35 -16 -12 -22 -12 -34 -1 -18 15 -60
29 -60 20 0 -4 11 -16 25 -27 30 -23 32 -44 6 -58 -12 -6 -17 -17 -14 -29 7
-28 -16 -36 -26 -9 -7 18 -3 28 16 46 27 25 23 43 -7 35 -14 -4 -17 -9 -11
-17 7 -8 2 -18 -13 -31 -16 -14 -21 -27 -18 -47 5 -31 -11 -37 -27 -10 -9 15
-12 15 -21 2 -6 -8 -8 -23 -6 -32 3 -14 -1 -17 -20 -12 -15 4 -24 2 -24 -5 0
-19 -16 -12 -29 13 -10 19 -11 28 -1 42 9 14 10 15 6 2 -2 -9 1 -24 8 -34 13
-17 15 -16 30 12 20 37 62 84 76 84 5 0 10 9 10 20 0 11 6 23 14 26 10 4 14
17 11 42 -1 20 -3 38 -4 40 -1 2 -11 -9 -24 -24 l-23 -26 -17 25 c-14 22 -14
27 -2 37 17 14 20 46 5 55 -5 3 -21 -2 -35 -11 -20 -13 -28 -14 -39 -4 -18 14
-56 -3 -56 -26 0 -8 -4 -12 -10 -9 -5 3 -10 19 -10 36 0 21 -5 29 -17 29 -13
0 -14 3 -5 12 8 8 15 8 26 -2 13 -10 17 -9 22 6 4 11 20 31 36 46 15 15 28 31
28 36 0 5 -19 -9 -42 -30 -40 -37 -43 -38 -50 -18 -8 22 -1 51 16 62 7 5 4 8
-6 8 -9 0 -20 -4 -23 -10 -10 -16 -23 -12 -21 8 0 11 -6 16 -17 16 -12 -1 -16
3 -13 15 29 94 58 179 66 191 16 25 31 -1 21 -35 -5 -17 -15 -47 -21 -68 -7
-24 -8 -43 -3 -48 6 -6 15 7 23 33 12 38 14 40 18 18 4 -21 8 -16 23 30 22 65
23 87 7 94 -10 3 -8 9 4 19 10 8 18 17 18 20 0 3 11 18 25 33 26 28 34 58 13
52 -7 -3 -19 -17 -26 -31 -7 -15 -18 -27 -23 -27 -13 0 -39 -25 -39 -38 0 -5
-6 -15 -14 -21 -11 -9 -21 -7 -47 8 -34 21 -32 23 23 35 32 7 62 57 53 87 -5
13 -1 21 12 25 35 11 63 28 63 37 0 5 -7 6 -15 3 -8 -3 -22 -9 -30 -12 -8 -3
-15 -1 -15 5 0 6 6 11 14 11 19 0 29 33 21 69 -6 27 -4 29 34 35 36 5 41 10
53 48 8 24 19 43 24 42 16 -2 42 50 32 63 -10 13 6 53 22 53 15 0 12 62 -5 93
-13 26 -13 31 7 58 12 16 19 31 16 34 -8 9 -184 -201 -243 -290 -126 -189
-221 -404 -271 -610 -20 -79 -44 -274 -44 -352 0 -39 -4 -63 -11 -63 -7 0 -9
21 -5 63 3 34 8 98 11 142 5 71 17 173 30 260 12 72 -17 -23 -37 -125 -18 -89
-21 -144 -22 -365 l0 -260 32 -120 c82 -299 100 -352 164 -483 49 -100 183
-300 237 -352 14 -14 52 -55 83 -92 89 -103 315 -282 453 -358 168 -94 374
-168 595 -215 85 -18 397 -38 463 -31 139 17 217 30 217 36 0 4 -7 13 -15 20
-8 7 -15 19 -15 26 0 8 -6 14 -13 14 -8 0 -25 22 -38 50 -15 30 -31 49 -41 50
-22 0 -77 109 -103 200 -33 118 -17 304 35 400 22 41 2 32 -21 -10 -19 -33
-28 -40 -48 -38 -15 2 -31 13 -38 28 -17 33 -16 119 2 150 18 31 19 48 3 32
-17 -17 -28 -15 -22 6 4 12 3 14 -4 4 -10 -15 -63 -44 -69 -39 -2 2 3 10 12
17 8 7 15 19 15 27 0 24 51 63 81 63 33 0 35 -7 13 -38 -25 -35 -2 -25 29 13
30 37 108 68 147 58 19 -5 21 -10 15 -41 -4 -20 -21 -55 -38 -79 -16 -24 -28
-45 -25 -48 3 -3 22 16 41 43 20 26 67 76 106 109 54 47 75 60 92 56 18 -5 21
-3 16 10 -7 19 4 22 20 6 6 -6 22 -12 36 -13 21 -3 28 3 36 26 10 27 12 28 63
23 117 -12 133 -12 156 3 12 8 22 10 22 6 0 -5 12 -14 26 -21 23 -10 26 -9 36
13 10 21 18 25 47 22 20 -2 41 -9 47 -16 8 -11 17 -7 42 22 18 20 32 41 32 46
0 6 7 10 15 10 8 0 15 -5 15 -11 0 -5 4 -8 9 -5 5 3 11 -1 15 -9 9 -25 29 -17
22 9 -4 16 -1 26 8 29 10 4 15 -7 19 -36 8 -54 66 -187 82 -187 7 0 16 12 19
26 5 20 10 23 21 14 11 -9 13 4 10 81 -3 67 0 100 11 121 8 15 12 28 8 28 -4
0 -1 7 6 15 7 8 9 15 4 15 -4 0 -3 5 3 11 8 8 8 20 3 35 -8 20 -4 26 35 49 25
14 45 30 45 35 0 6 6 10 14 10 20 0 29 16 21 40 -6 19 -31 32 -70 37 -11 1
-62 7 -114 13 -51 6 -108 18 -125 27 l-31 16 29 10 c16 5 36 16 45 24 29 25
115 82 163 108 29 15 58 41 73 64 13 22 33 42 45 46 24 8 24 14 4 40 -16 20
-16 20 -9 -3 5 -18 2 -25 -12 -29 -10 -2 -31 -22 -48 -42 -16 -21 -52 -48 -78
-60 -27 -13 -60 -35 -74 -51 -14 -16 -38 -32 -54 -35 -16 -4 -29 -13 -29 -21
0 -8 -4 -14 -10 -14 -5 0 -10 5 -10 10 0 17 -20 11 -45 -14 -13 -13 -26 -21
-29 -18 -4 3 -15 -4 -26 -16 -12 -12 -32 -22 -45 -22 -13 0 -40 -9 -59 -21
-36 -21 -71 -19 -89 5 -6 7 -7 5 -3 -6 4 -13 -7 -22 -42 -39 -26 -12 -55 -26
-66 -31 -17 -9 -18 -6 -14 21 2 17 1 31 -4 31 -4 0 -8 5 -8 10 0 6 7 10 15 10
9 0 15 9 15 25 0 14 -4 25 -10 25 -5 0 -7 -6 -4 -14 4 -11 -6 -18 -33 -25 -47
-13 -81 -36 -70 -48 5 -4 14 0 21 9 11 15 13 15 24 -2 6 -11 8 -22 3 -25 -15
-8 -54 -9 -79 -1 -23 8 -23 7 -9 -16 10 -15 12 -30 7 -43 -5 -12 -9 -14 -9 -6
-1 12 -4 12 -13 3 -21 -21 -35 -13 -58 36 -24 53 -44 72 -74 72 -17 0 -15 -4
12 -21 42 -27 42 -56 1 -73 -39 -17 -64 -11 -66 15 -1 11 2 17 8 14 15 -10 10
7 -6 19 -14 10 -13 14 5 34 12 12 18 26 15 32 -3 5 3 13 12 19 28 16 7 13 -37
-6 -43 -19 -44 -20 -31 -77 10 -41 -2 -76 -27 -76 -9 0 -10 5 -3 19 9 16 8 18
-8 14 -29 -8 -35 -34 -11 -50 12 -8 19 -21 16 -29 -3 -8 -1 -14 4 -14 5 0 12
9 15 21 10 32 15 18 19 -57 2 -38 9 -87 16 -109 6 -22 10 -54 8 -70 l-3 -30
-32 45 c-18 25 -37 51 -43 57 -6 7 -10 15 -9 18 0 3 -2 24 -6 46 -5 30 -3 44
6 50 16 9 21 6 -65 49 -54 28 -78 48 -112 94 -44 58 -52 76 -35 76 14 0 10 54
-5 71 -12 14 -12 18 6 34 15 14 23 15 34 6 11 -9 18 -7 32 12 11 13 27 26 36
29 11 5 15 14 11 28 -7 26 -22 35 -36 21 -14 -14 -37 -14 -37 0 0 7 11 22 25
35 32 29 32 44 0 44 -17 0 -23 -4 -19 -14 5 -14 -61 -155 -79 -167 -5 -4 -7
-13 -5 -20 3 -8 0 -25 -7 -39 -7 -14 -18 -37 -24 -53 -7 -18 -20 -29 -38 -33
-16 -3 -41 -16 -57 -29 l-29 -23 56 0 c32 0 57 5 57 11 0 5 9 2 19 -7 14 -13
28 -16 54 -11 20 4 41 4 47 0 21 -13 -12 -25 -71 -25 -113 0 -210 -12 -205
-26 5 -14 -24 -24 -75 -24 -29 0 -38 -5 -42 -21 -7 -25 17 -54 35 -43 8 5 9 2
5 -9 -4 -10 -1 -17 6 -17 7 -1 -6 -10 -27 -20 -73 -37 -118 -96 -138 -180 -11
-48 -11 -49 -37 -35 -14 7 -33 21 -42 31 -22 27 -43 98 -37 128 3 15 1 26 -6
26 -6 0 -4 6 4 13 8 7 26 35 40 64 14 29 30 52 36 53 15 0 39 29 30 37 -3 4
-16 -3 -29 -14 -18 -17 -34 -20 -85 -18 -53 2 -68 7 -100 32 -47 38 -82 98
-82 143 0 49 27 147 51 186 23 38 91 74 140 74 39 0 59 -15 59 -44 0 -19 0
-19 14 -1 13 18 15 17 47 -19 60 -66 85 -164 59 -230 -8 -23 -7 -26 10 -26 11
0 19 4 18 9 -2 5 19 26 46 46 l48 38 -28 22 c-26 21 -30 21 -41 6 -11 -13 -11
-11 -2 11 11 25 8 32 -39 89 -31 38 -48 68 -44 77 4 12 1 14 -14 9 -18 -6 -18
-6 -1 6 10 7 28 20 39 30 21 17 21 17 2 39 -19 21 -19 21 5 15 l23 -6 -23 25
-24 26 28 -7 c28 -7 38 10 18 31 -5 5 -11 20 -13 34 -2 17 -8 24 -20 22 -10
-2 -18 2 -18 8 0 6 -4 9 -9 6 -5 -4 -7 3 -4 13 3 11 17 22 33 26 24 5 28 12
33 50 8 52 2 74 -27 98 -17 13 -6 12 49 -8 39 -14 76 -28 84 -31 8 -2 12 -6
10 -9 -3 -2 -24 3 -48 11 -48 16 -68 11 -28 -7 38 -17 49 -57 24 -91 -16 -21
-20 -42 -20 -97 1 -44 6 -77 14 -87 12 -14 15 -12 25 17 17 47 17 59 -1 53
-12 -5 -15 3 -15 40 0 25 4 46 9 46 5 0 12 10 16 23 6 21 7 21 20 -8 7 -16 13
-49 13 -73 0 -49 5 -58 24 -46 25 16 63 12 92 -8 l29 -21 17 24 c16 20 20 21
34 10 14 -12 16 -9 16 27 0 23 -4 44 -10 47 -5 3 -10 17 -10 30 0 13 5 27 10
30 6 3 10 15 10 26 0 15 6 19 22 17 17 -2 22 3 25 27 2 16 6 31 7 33 2 2 42
-16 89 -39 47 -23 93 -39 101 -36 11 5 16 20 16 52 0 42 6 50 33 46 4 0 7 9 7
22 1 22 1 22 15 -3 14 -25 14 -25 15 -2 0 25 12 29 28 9 8 -9 3 -28 -19 -72
-26 -53 -28 -62 -18 -88 l13 -30 15 49 c21 62 38 93 68 122 29 27 46 29 38 3
-3 -11 -1 -22 5 -26 7 -4 7 -12 -1 -26 -6 -11 -8 -26 -6 -34 3 -7 0 -18 -6
-25 -10 -10 -8 -10 10 -1 12 6 31 23 42 37 l21 26 -22 32 c-11 17 -28 37 -36
43 -9 7 -16 21 -17 32 -1 11 -7 26 -14 35 -11 13 -10 19 10 36 13 10 31 19 40
20 8 0 25 14 38 31 22 29 22 31 4 44 -10 8 -13 15 -7 15 11 0 34 -20 34 -31 0
-4 -11 -21 -25 -37 l-25 -30 20 -52 c18 -46 19 -53 5 -66 -17 -18 -19 -33 -5
-54 8 -12 16 -9 46 21 33 33 35 38 22 58 -11 19 -11 24 4 35 10 7 15 15 13 18
-3 3 1 10 9 17 11 9 14 8 12 -6 -1 -14 6 -18 29 -18 19 0 29 -5 28 -12 -2 -7
3 -13 11 -13 7 0 26 -16 40 -35 32 -42 25 -47 -9 -7 l-25 27 -17 -21 c-10 -12
-31 -29 -46 -39 -27 -17 -77 -79 -153 -186 -39 -55 -40 -74 -3 -37 13 13 39
36 58 51 18 15 31 30 28 33 -3 3 -14 -4 -24 -15 -9 -12 -22 -21 -28 -21 -5 1
10 19 35 40 42 37 45 38 52 20 11 -29 -6 -64 -53 -111 l-42 -42 24 -18 c13
-11 39 -28 58 -39 l34 -21 -6 29 c-11 52 5 84 55 112 49 26 74 45 46 35 -9 -4
-18 0 -21 9 -5 12 0 15 16 13 16 -1 22 3 21 16 -2 18 5 21 30 11 15 -6 15 -8
-1 -19 -17 -13 -17 -14 -1 -20 11 -4 32 1 53 14 19 11 35 17 35 13 0 -4 57 -8
128 -9 70 -1 141 -3 157 -6 93 -15 115 -20 115 -27 0 -5 14 -11 30 -15 17 -4
30 -11 30 -16 0 -5 7 -9 15 -9 8 0 15 7 15 15 0 8 5 15 11 15 5 0 7 -5 4 -10
-3 -6 1 -17 10 -26 20 -20 40 -6 60 43 23 54 105 154 139 168 37 16 43 13 51
-25 8 -36 11 -37 35 -7 l18 22 11 -28 c31 -81 42 -301 17 -349 -8 -16 -12 -42
-9 -65 3 -21 6 -54 8 -73 2 -19 8 -69 14 -110 5 -41 13 -103 17 -138 11 -101
30 -88 24 17 -1 19 2 31 8 27 5 -3 15 15 21 39 16 63 23 195 10 195 -5 0 -3
14 6 30 12 23 12 30 3 28 -9 -2 -12 7 -11 25 1 15 -2 25 -7 22 -6 -4 -10 -25
-10 -47 0 -68 -10 -37 -14 43 -3 44 0 79 7 87 8 10 7 16 -4 23 -8 5 -10 9 -4
9 5 0 4 5 -3 12 -7 7 -12 21 -12 33 0 16 2 17 10 5 5 -8 10 -13 10 -10 1 3 3
59 5 125 2 66 4 125 5 130 0 6 -1 47 -3 93 -2 45 0 79 4 75 21 -23 55 -236 65
-406 11 -202 -44 -621 -86 -647 -9 -5 -10 -19 -6 -44 6 -30 3 -40 -21 -64 -15
-16 -50 -40 -77 -53 -27 -13 -66 -40 -87 -59 -21 -19 -49 -43 -63 -53 -31 -22
-33 -38 -6 -62 11 -10 20 -28 20 -39 1 -54 18 -49 62 20 25 38 53 84 62 102 9
18 21 30 27 26 9 -5 -15 -54 -87 -182 -11 -17 -25 -30 -31 -27 -7 2 -13 -1
-13 -7 0 -7 -27 -9 -85 -6 -73 4 -95 10 -155 40 l-70 36 -1 -86 c-3 -158 1
-215 15 -241 8 -14 21 -39 29 -56 17 -36 42 -59 56 -51 15 9 192 223 233 281
20 28 59 95 88 150 29 55 58 110 65 122 13 24 8 86 -6 77 -5 -3 -9 -14 -9 -26
0 -17 -2 -19 -16 -8 -13 12 -13 16 6 34 21 21 21 21 36 1 8 -11 12 -25 10 -32
-7 -16 26 -17 42 -1 9 9 7 14 -5 23 -16 12 -15 20 10 101 15 49 27 96 27 105
0 8 4 19 9 25 9 9 33 85 57 184 21 81 29 308 15 425 -6 55 -14 143 -17 195 -7
125 -36 241 -92 380 -119 294 -242 488 -419 662 -118 116 -221 198 -197 156 4
-8 3 -10 -2 -5 -5 5 -9 14 -9 20 0 26 -296 210 -425 265 -190 80 -483 145
-640 141 -25 -1 20 -10 100 -20z m-89 -56 c13 -16 12 -17 -3 -4 -17 13 -22 21
-14 21 2 0 10 -8 17 -17z m-42 -6 c-2 -1 -12 -9 -21 -16 -15 -12 -18 -11 -18
3 0 10 8 16 22 16 12 0 19 -1 17 -3z m318 -13 c-3 -3 -12 -4 -19 -1 -8 3 -5 6
6 6 11 1 17 -2 13 -5z m293 -44 c8 -5 11 -10 5 -10 -5 0 -17 5 -25 10 -8 5
-10 10 -5 10 6 0 17 -5 25 -10z m75 -30 c3 -5 2 -10 -4 -10 -5 0 -13 5 -16 10
-3 6 -2 10 4 10 5 0 13 -4 16 -10z m105 -56 c0 -2 -9 0 -20 6 -11 6 -20 13
-20 16 0 2 9 0 20 -6 11 -6 20 -13 20 -16z m-140 -14 c0 -5 -2 -10 -4 -10 -3
0 -8 5 -11 10 -3 6 -1 10 4 10 6 0 11 -4 11 -10z m186 -5 c10 -8 15 -14 9 -14
-5 0 -19 6 -29 14 -11 8 -15 15 -10 15 6 0 19 -7 30 -15z m-13 -76 c4 -16 3
-18 -9 -8 -16 13 -19 29 -5 29 5 0 11 -9 14 -21z m-1623 -4 c-7 -8 -18 -15
-24 -15 -6 0 -2 7 8 15 25 19 32 19 16 0z m1770 -425 c0 -12 -41 -30 -52 -23
-5 2 -8 8 -8 13 0 7 10 11 53 19 4 0 7 -4 7 -9z m-52 -77 c-5 -25 -28 -28 -28
-4 0 12 6 21 16 21 9 0 14 -7 12 -17z m95 -32 c4 -1 7 -16 7 -33 0 -18 -4 -28
-8 -22 -14 20 -40 23 -47 6 -6 -14 -8 -13 -16 7 -14 36 -4 53 28 47 16 -2 31
-5 36 -5z m177 -1 c0 -5 -4 -10 -10 -10 -5 0 -10 5 -10 10 0 6 5 10 10 10 6 0
10 -4 10 -10z m174 -6 c3 -8 2 -12 -4 -9 -6 3 -10 10 -10 16 0 14 7 11 14 -7z
m-304 -24 c0 -5 -2 -10 -4 -10 -3 0 -8 5 -11 10 -3 6 -1 10 4 10 6 0 11 -4 11
-10z m-641 -34 c15 -18 2 -53 -35 -89 -38 -38 -93 -35 -112 6 -12 25 -12 31 4
48 9 10 25 19 34 19 10 0 23 7 30 15 16 19 64 20 79 1z m671 0 c0 -8 -7 -16
-15 -20 -8 -3 -15 -12 -15 -19 0 -9 -9 -13 -26 -11 -18 2 -24 -1 -20 -11 7
-20 -10 -27 -24 -10 -16 19 -6 32 30 40 17 4 30 13 30 20 0 12 13 22 33 24 4
1 7 -5 7 -13z m160 -51 c-7 -9 -15 -13 -17 -11 -7 7 7 26 19 26 6 0 6 -6 -2
-15z m-2853 -15 c14 -11 20 -20 13 -20 -8 0 -11 -9 -8 -25 6 -31 -5 -40 -32
-25 -20 11 -20 13 -6 35 19 28 20 35 6 35 -6 0 -15 -12 -21 -26 -5 -15 -12
-24 -15 -21 -6 5 26 67 34 67 2 0 15 -9 29 -20z m2298 0 c3 -5 1 -10 -4 -10
-6 0 -11 5 -11 10 0 6 2 10 4 10 3 0 8 -4 11 -10z m515 6 c0 -2 3 -12 7 -22 4
-12 2 -15 -8 -12 -8 3 -22 -1 -31 -10 -16 -14 -18 -13 -18 4 -1 18 -1 18 -11
1 -13 -22 -3 -70 14 -64 6 2 14 14 17 27 5 21 6 21 20 5 12 -15 11 -19 -10
-36 -30 -22 -31 -23 -55 -5 -17 12 -17 17 -6 59 10 33 19 47 35 50 33 7 46 7
46 3z m-225 -26 c4 -11 11 -18 16 -15 5 4 9 -1 9 -9 0 -10 -6 -13 -17 -9 -21
8 -33 23 -33 41 0 19 18 14 25 -8z m375 -39 c0 -22 -65 -47 -76 -29 -3 5 3 12
15 15 12 3 21 9 21 14 0 5 9 9 20 9 11 0 20 -4 20 -9z m-111 -10 c9 -6 10 -11
2 -15 -13 -8 -31 1 -31 15 0 11 11 11 29 0z m-1230 -15 c52 -1 55 -2 68 -34
17 -43 9 -68 -27 -87 -43 -22 -76 -19 -99 11 l-20 26 -28 -20 c-15 -10 -43
-25 -60 -33 -23 -10 -31 -19 -28 -30 3 -9 -1 -19 -8 -22 -10 -4 -14 4 -14 24
0 16 5 29 10 29 13 0 79 41 74 46 -2 3 -17 0 -32 -6 -38 -14 -44 -5 -8 13 16
9 35 28 43 44 24 48 32 55 54 47 12 -4 45 -8 75 -8z m280 -12 c28 -35 33 -57
22 -85 -5 -13 -10 -17 -10 -9 -1 8 -12 -4 -26 -27 -29 -47 -54 -60 -84 -41
-18 11 -41 55 -41 78 0 12 44 57 68 69 12 6 22 18 22 26 0 24 27 17 49 -11z
m766 9 c11 -14 10 -19 -3 -29 -16 -12 -7 -39 10 -28 6 4 8 -1 4 -13 -4 -12 -1
-25 9 -33 25 -21 17 -32 -10 -13 -13 10 -23 23 -21 29 5 13 -31 47 -43 40 -9
-6 -45 34 -37 42 4 3 12 0 18 -6 7 -7 20 -12 31 -12 14 0 17 5 12 20 -8 25 13
27 30 3z m196 -51 c15 -12 39 -19 65 -18 39 1 41 0 40 -27 -2 -33 -31 -56 -49
-38 -8 8 -6 11 7 11 36 0 9 23 -33 26 -27 3 -40 0 -36 -6 3 -6 -2 -13 -12 -17
-10 -3 -28 -15 -41 -27 -20 -17 -24 -18 -32 -6 -8 13 -10 13 -10 -2 0 -9 6
-18 13 -21 6 -2 9 -7 6 -11 -9 -10 -39 4 -39 19 0 7 -7 16 -16 19 -8 3 -12 11
-9 16 5 7 11 8 19 1 8 -7 16 -4 25 11 9 15 19 19 41 15 15 -4 30 -4 33 -1 10
10 -5 34 -16 27 -7 -4 -8 0 -4 11 4 10 7 22 7 27 0 14 15 11 41 -9z m-76 -21
c-8 -14 -35 -14 -35 0 0 5 4 8 9 4 5 -3 13 0 16 6 4 5 9 8 12 5 3 -2 2 -9 -2
-15z m-54 -24 c-13 -13 -31 0 -24 19 4 11 8 12 20 3 9 -8 10 -16 4 -22z m-623
11 c-2 -6 -10 -14 -16 -16 -7 -2 -10 2 -6 12 7 18 28 22 22 4z m412 8 c0 -11
-19 -15 -25 -6 -3 5 1 10 9 10 9 0 16 -2 16 -4z m-1110 -37 c0 -5 -7 -9 -15
-9 -9 0 -15 9 -15 21 0 18 2 19 15 9 8 -7 15 -16 15 -21z m1821 9 c11 -21 11
-22 -4 -9 -10 7 -17 17 -17 22 0 15 9 10 21 -13z m-728 -10 c12 -7 33 -11 47
-9 22 2 23 1 9 -11 -9 -7 -26 -30 -38 -50 -13 -21 -26 -38 -30 -38 -13 0 -31
24 -31 41 0 10 -5 19 -12 21 -6 2 -8 10 -4 17 6 8 11 9 20 2 14 -12 26 -5 26
16 0 10 -6 12 -20 8 -11 -4 -20 -2 -20 4 0 15 26 14 53 -1z m-770 -22 c14 15
17 -39 3 -61 -22 -34 -49 -34 -40 0 3 14 7 36 8 49 1 16 5 21 12 15 6 -5 13
-6 17 -3z m1399 0 c7 4 8 2 4 -5 -9 -13 -26 -5 -25 12 0 9 2 8 6 -1 2 -6 10
-9 15 -6z m-714 -15 c3 -8 -1 -12 -9 -9 -7 2 -15 10 -17 17 -3 8 1 12 9 9 7
-2 15 -10 17 -17z m522 -7 c0 -2 -9 -4 -20 -4 -11 0 -20 4 -20 9 0 5 9 7 20 4
11 -3 20 -7 20 -9z m-260 2 c0 -1 -5 -17 -11 -35 -15 -43 -30 -40 -16 4 6 19
14 35 19 35 4 0 8 -2 8 -4z m-1004 -31 c-3 -9 -11 -13 -16 -10 -8 5 -7 11 1
21 14 18 24 11 15 -11z m500 0 c7 -17 -14 -48 -26 -40 -5 3 -7 13 -5 23 2 9 4
20 4 25 2 13 21 7 27 -8z m730 -53 c-4 -3 -11 0 -16 7 -4 8 -15 11 -24 8 -23
-9 -32 14 -11 29 15 11 20 10 38 -12 10 -14 16 -28 13 -32z m379 28 c14 -28
21 -59 10 -48 -7 6 -61 -45 -68 -64 -3 -7 -6 -1 -6 15 -1 21 4 27 19 27 22 0
26 20 10 51 -8 14 -7 23 2 34 17 19 15 19 33 -15z m-1323 1 c5 -4 -8 -5 -27
-3 -19 2 -38 9 -41 14 -7 11 56 1 68 -11z m164 -18 c-1 -46 -26 -55 -43 -16
-7 14 -11 29 -8 31 2 3 7 -3 11 -12 3 -9 10 -16 16 -16 5 0 6 5 3 10 -5 9 10
40 20 40 1 0 2 -17 1 -37z m429 27 c3 -5 2 -10 -4 -10 -5 0 -13 5 -16 10 -3 6
-2 10 4 10 5 0 13 -4 16 -10z m642 -6 c2 -7 -6 -10 -22 -6 -35 6 -44 24 -9 20
15 -2 29 -8 31 -14z m-784 -9 c13 -9 17 -20 12 -34 -6 -21 -25 -29 -25 -11 0
5 -11 21 -25 35 l-26 25 23 0 c13 0 31 -7 41 -15z m397 -5 c0 -11 -4 -20 -10
-20 -5 0 -10 9 -10 20 0 11 5 20 10 20 6 0 10 -9 10 -20z m-462 -32 c-2 -7 5
-12 15 -10 9 2 17 -3 17 -10 0 -7 -11 -13 -25 -13 -24 0 -35 22 -18 38 10 10
13 8 11 -5z m538 -2 c21 -22 17 -25 -16 -13 -16 6 -30 15 -30 19 0 13 31 9 46
-6z m192 -52 c3 -13 -5 -9 -28 16 -27 31 -30 32 -24 11 5 -21 4 -22 -9 -10 -9
9 -12 18 -6 25 5 6 5 15 1 20 -4 4 9 -3 28 -18 19 -14 37 -34 38 -44z m61 52
c9 -11 8 -15 -5 -20 -27 -10 -38 -7 -25 7 6 8 8 17 4 20 -3 4 -2 7 4 7 6 0 16
-6 22 -14z m-1109 -17 c0 -5 -4 -9 -10 -9 -5 0 -10 7 -10 16 0 8 5 12 10 9 6
-3 10 -10 10 -16z m720 11 c0 -5 -4 -10 -10 -10 -5 0 -10 5 -10 10 0 6 5 10
10 10 6 0 10 -4 10 -10z m-33 -21 c-3 -13 2 -28 14 -40 17 -17 17 -49 -1 -49
-12 0 -43 87 -35 99 11 19 28 12 22 -10z m-577 -9 c-6 -11 -13 -20 -15 -20 -3
0 -5 9 -5 20 0 11 7 20 15 20 13 0 14 -4 5 -20z m726 3 c3 -10 10 -26 15 -35
7 -14 5 -16 -9 -11 -21 7 -42 32 -42 50 0 19 30 16 36 -4z m-569 -11 c-21 -23
-22 -39 -2 -22 9 8 15 8 15 2 0 -6 8 -13 18 -17 11 -3 24 -17 30 -31 15 -32
15 -34 -3 -34 -8 0 -15 -4 -15 -10 0 -5 -4 -10 -10 -10 -5 0 -10 6 -10 14 0
21 -18 30 -34 17 -21 -17 -54 24 -38 47 7 9 16 27 22 40 5 12 17 22 26 22 16
0 16 -1 1 -18z m147 -7 c-7 -29 9 -34 33 -10 14 14 17 14 34 -1 27 -24 24 -36
-7 -28 -17 4 -29 2 -35 -7 -6 -11 -11 -11 -20 -2 -8 8 -18 9 -30 2 -16 -8 -18
-5 -14 21 4 37 12 50 31 50 10 0 13 -7 8 -25z m356 15 c0 -5 -5 -10 -11 -10
-5 0 -7 5 -4 10 3 6 8 10 11 10 2 0 4 -4 4 -10z m-840 -10 c0 -5 -4 -10 -10
-10 -5 0 -10 5 -10 10 0 6 5 10 10 10 6 0 10 -4 10 -10z m790 0 c0 -5 -4 -10
-10 -10 -5 0 -10 5 -10 10 0 6 5 10 10 10 6 0 10 -4 10 -10z m-101 -17 c-6 -7
-8 -17 -4 -23 4 -6 -6 -13 -23 -16 -19 -4 -32 -14 -35 -26 -3 -11 -10 -17 -16
-13 -7 4 -11 -5 -11 -25 0 -18 -4 -29 -10 -25 -18 11 -11 41 18 71 15 16 34
29 42 29 9 0 14 8 13 20 -1 14 4 21 17 21 14 0 16 -4 9 -13z m-269 -3 c0 -5
-4 -10 -10 -10 -5 0 -10 5 -10 10 0 6 5 10 10 10 6 0 10 -4 10 -10z m404 -6
c4 -9 13 -14 21 -10 17 6 21 -9 4 -19 -11 -7 -49 22 -49 37 0 14 18 9 24 -8z
m416 -14 c0 -10 -26 -20 -34 -13 -14 14 -5 31 14 26 11 -3 20 -9 20 -13z
m-115 -10 c-3 -5 -14 -10 -23 -10 -15 0 -15 2 -2 10 20 13 33 13 25 0z m180 0
c-3 -5 -10 -10 -16 -10 -5 0 -9 5 -9 10 0 6 7 10 16 10 8 0 12 -4 9 -10z
m-1100 -10 c3 -5 2 -10 -4 -10 -5 0 -13 5 -16 10 -3 6 -2 10 4 10 5 0 13 -4
16 -10z m875 0 c0 -5 -2 -10 -4 -10 -3 0 -8 5 -11 10 -3 6 -1 10 4 10 6 0 11
-4 11 -10z m-810 -10 c0 -5 -4 -10 -10 -10 -5 0 -10 5 -10 10 0 6 5 10 10 10
6 0 10 -4 10 -10z m208 -12 c2 -8 -6 -26 -17 -39 l-20 -24 4 40 c2 22 4 42 4
43 2 10 26 -7 29 -20z m92 12 c0 -5 -4 -10 -10 -10 -5 0 -10 5 -10 10 0 6 5
10 10 10 6 0 10 -4 10 -10z m620 0 c0 -5 -6 -10 -14 -10 -8 0 -18 5 -21 10 -3
6 3 10 14 10 12 0 21 -4 21 -10z m59 -19 c16 -16 17 -21 5 -25 -7 -3 -18 3
-24 14 -19 35 -10 40 19 11z m-359 -3 c0 -5 -4 -8 -9 -8 -5 0 -12 -9 -16 -19
-4 -13 -12 -17 -26 -14 -27 7 -35 24 -17 37 17 12 68 15 68 4z m410 2 c0 -5
-2 -10 -4 -10 -3 0 -8 5 -11 10 -3 6 -1 10 4 10 6 0 11 -4 11 -10z m-115 -20
c3 -5 1 -10 -4 -10 -6 0 -11 5 -11 10 0 6 2 10 4 10 3 0 8 -4 11 -10z m-226
-45 c-9 -9 -23 -13 -32 -9 -25 9 -21 27 4 19 18 -6 20 -4 14 17 -7 22 -6 22
11 6 16 -16 17 -20 3 -33z m65 14 c14 -11 30 -18 35 -14 5 3 12 1 16 -5 6 -10
-7 -14 -35 -10 -8 1 -21 11 -28 21 -7 11 -18 17 -23 14 -5 -4 -9 -1 -9 4 0 17
15 13 44 -10z m-638 -16 c-10 -10 -19 5 -10 18 6 11 8 11 12 0 2 -7 1 -15 -2
-18z m776 5 c-6 -6 -15 -8 -19 -4 -4 4 -1 11 7 16 19 12 27 3 12 -12z m-364
-16 c2 -7 -2 -10 -12 -6 -9 3 -16 11 -16 16 0 13 23 5 28 -10z m322 8 c0 -5
-5 -10 -11 -10 -5 0 -7 5 -4 10 3 6 8 10 11 10 2 0 4 -4 4 -10z m95 0 c-3 -5
-11 -10 -16 -10 -6 0 -7 5 -4 10 3 6 11 10 16 10 6 0 7 -4 4 -10z m-1227 -23
c2 -10 -3 -17 -12 -17 -10 0 -16 9 -16 21 0 24 23 21 28 -4z m492 13 c0 -5 -5
-10 -11 -10 -5 0 -7 5 -4 10 3 6 8 10 11 10 2 0 4 -4 4 -10z m59 -4 c10 -12 7
-21 -17 -45 -16 -17 -31 -31 -34 -31 -3 0 -5 14 -6 30 -1 30 13 41 21 18 3
-10 7 -10 20 1 19 15 12 35 -10 27 -8 -3 -11 -1 -8 4 9 14 21 12 34 -4z m211
-2 c0 -8 -5 -12 -10 -9 -6 4 -8 11 -5 16 9 14 15 11 15 -7z m-28 -13 c11 -13
13 -22 5 -30 -7 -7 -6 -15 3 -26 11 -13 10 -14 -4 -9 -9 3 -16 13 -16 21 0 10
-7 13 -22 8 -22 -6 -22 -5 -4 9 10 9 16 22 13 31 -9 21 5 19 25 -4z m-2782 -1
c0 -5 -4 -10 -10 -10 -5 0 -10 5 -10 10 0 6 5 10 10 10 6 0 10 -4 10 -10z
m1340 -6 c0 -9 -5 -14 -12 -12 -18 6 -21 28 -4 28 9 0 16 -7 16 -16z m1830 6
c0 -5 -5 -10 -11 -10 -5 0 -7 5 -4 10 3 6 8 10 11 10 2 0 4 -4 4 -10z m-1281
-41 c-13 -26 -20 -21 -12 9 3 12 9 19 14 16 5 -3 4 -14 -2 -25z m956 21 c3 -5
1 -10 -4 -10 -6 0 -11 5 -11 10 0 6 2 10 4 10 3 0 8 -4 11 -10z m-2805 -91 c0
-9 7 -20 16 -23 8 -3 13 -10 9 -15 -8 -15 28 -31 45 -21 23 14 52 -24 44 -55
-4 -15 -12 -24 -18 -22 -45 19 -47 19 -46 6 4 -25 0 -39 -10 -39 -5 0 -10 9
-10 19 0 11 -4 23 -10 26 -5 3 -10 2 -10 -3 0 -6 -8 -9 -17 -8 -23 1 -23 -34
-1 -55 12 -10 15 -24 12 -40 -3 -13 -8 -36 -11 -50 -3 -15 -15 -31 -28 -37
-29 -13 -24 -46 14 -81 20 -19 23 -25 11 -29 -28 -9 -29 -26 -3 -60 23 -31 24
-34 9 -51 -14 -15 -15 -23 -5 -45 10 -21 9 -32 -2 -54 -8 -15 -18 -30 -24 -34
-14 -10 -41 129 -56 289 -7 73 -16 130 -21 127 -4 -3 -8 8 -8 25 0 16 4 31 9
33 5 2 12 39 15 83 4 44 11 108 17 143 l11 62 34 -37 c19 -20 34 -45 34 -54z
m2314 75 c9 -24 7 -28 -9 -14 -17 14 -20 30 -6 30 5 0 12 -7 15 -16z m796 7
c3 -1 -2 -6 -10 -11 -12 -8 -12 -10 -1 -10 11 0 11 -3 1 -15 -17 -21 -43 -19
-58 5 -22 35 -5 43 68 31z m-492 -23 c5 16 22 5 22 -14 0 -9 -11 -14 -31 -14
-18 0 -28 -4 -24 -10 4 -6 16 -8 28 -4 17 5 19 3 11 -6 -16 -16 -57 -3 -50 16
3 7 1 16 -4 19 -22 14 -8 24 17 12 21 -9 27 -9 31 1z m-193 -8 c-3 -5 -11 -10
-16 -10 -6 0 -7 5 -4 10 3 6 11 10 16 10 6 0 7 -4 4 -10z m-44 -9 c-7 -5 -10
-14 -7 -20 4 -6 12 -9 17 -6 5 4 9 1 9 -4 0 -14 -37 -14 -45 -1 -11 17 3 40
22 40 14 0 15 -2 4 -9z m89 4 c0 -9 -40 -45 -50 -45 -17 0 -11 18 12 34 22 16
38 20 38 11z m487 -17 c-3 -8 -6 -5 -6 6 -1 11 2 17 5 13 3 -3 4 -12 1 -19z
m-257 -50 c0 -8 -20 -22 -24 -17 -2 2 -7 20 -10 39 l-7 35 20 -25 c11 -14 21
-28 21 -32z m302 20 c-7 -7 -12 -8 -12 -2 0 14 12 26 19 19 2 -3 -1 -11 -7
-17z m-682 -19 c0 -6 -4 -7 -10 -4 -5 3 -10 11 -10 16 0 6 5 7 10 4 6 -3 10
-11 10 -16z m-1842 4 c-10 -2 -26 -2 -35 0 -10 3 -2 5 17 5 19 0 27 -2 18 -5z
m2249 -15 c-3 -8 -6 -5 -6 6 -1 11 2 17 5 13 3 -3 4 -12 1 -19z m-2336 -9
c-18 -11 -38 -18 -44 -16 -5 1 5 11 24 20 48 23 61 21 20 -4z m220 1 l24 -19
-23 -1 c-14 0 -21 4 -17 10 4 7 -3 8 -21 4 -25 -6 -26 -5 -13 9 18 21 22 21
50 -3z m639 11 c0 -6 -4 -13 -10 -16 -5 -3 -10 1 -10 9 0 9 5 16 10 16 6 0 10
-4 10 -9z m1240 -1 c0 -5 -5 -10 -11 -10 -5 0 -7 5 -4 10 3 6 8 10 11 10 2 0
4 -4 4 -10z m-1492 -26 c17 -17 15 -21 -10 -27 -16 -4 -23 -14 -24 -32 -3 -50
-14 -77 -29 -71 -12 4 -15 -4 -15 -37 -1 -23 -5 -62 -10 -87 -5 -29 -5 -47 2
-51 7 -4 6 -9 -1 -13 -6 -4 -11 -2 -11 4 0 6 -5 8 -10 5 -16 -10 -50 5 -50 21
0 9 13 28 29 44 25 26 28 34 23 78 -3 40 -1 51 12 54 11 2 13 7 6 18 -9 13
-12 13 -23 -1 -6 -9 -17 -14 -24 -12 -15 5 -26 -14 -13 -22 5 -3 10 -11 10
-17 0 -6 -3 -8 -7 -5 -3 4 -12 2 -20 -4 -9 -9 -13 -8 -13 0 0 6 -4 11 -10 11
-5 0 -10 -11 -10 -25 0 -20 -5 -25 -25 -25 -14 0 -25 4 -25 8 0 4 -8 8 -19 8
-10 0 -18 -7 -17 -15 1 -22 -35 -26 -50 -6 -17 24 3 44 39 40 31 -4 34 3 10
21 -15 10 -16 15 -5 25 10 11 12 10 12 -4 0 -19 15 -23 25 -7 3 6 17 7 31 4
20 -5 23 -3 18 10 -5 14 -2 16 19 11 14 -4 28 -2 31 4 4 6 0 11 -8 11 -9 0
-16 5 -16 11 0 7 -8 18 -17 25 -17 12 -17 14 -1 30 22 22 98 30 98 9 0 -7 -8
-19 -17 -24 -17 -10 -17 -10 -1 -11 10 0 22 -9 28 -20 14 -25 30 -26 30 -1 0
11 -9 21 -22 24 l-22 6 23 25 c24 26 58 30 79 10z m1857 6 c3 -5 1 -10 -4 -10
-6 0 -11 5 -11 10 0 6 2 10 4 10 3 0 8 -4 11 -10z m-1655 -10 c0 -5 -4 -10
-10 -10 -5 0 -10 5 -10 10 0 6 5 10 10 10 6 0 10 -4 10 -10z m-730 -25 c-15
-16 -27 -22 -33 -16 -13 13 1 31 18 24 8 -3 15 0 15 6 0 6 5 11 12 11 6 0 1
-11 -12 -25z m250 11 c0 -14 -29 -30 -38 -21 -3 3 0 5 6 5 7 0 12 7 12 15 0 8
5 15 10 15 6 0 10 -6 10 -14z m762 -17 c-4 -13 -14 -26 -22 -28 -8 -2 -23 -6
-32 -8 -10 -3 -18 0 -18 6 0 6 4 11 10 11 5 0 7 7 3 16 -5 14 -1 16 20 12 17
-3 28 0 32 10 9 24 15 8 7 -19z m-1317 -9 c-3 -5 -12 -10 -18 -10 -7 0 -6 4 3
10 19 12 23 12 15 0z m415 0 c0 -5 -5 -10 -11 -10 -5 0 -7 5 -4 10 3 6 8 10
11 10 2 0 4 -4 4 -10z m970 -45 c-22 -26 -30 -16 -12 15 12 21 18 25 20 14 2
-8 -2 -21 -8 -29z m-1020 25 c0 -5 -4 -10 -10 -10 -5 0 -10 5 -10 10 0 6 5 10
10 10 6 0 10 -4 10 -10z m-41 -14 c15 -8 20 -16 12 -20 -6 -4 -11 -18 -11 -31
0 -16 -7 -26 -22 -31 -30 -9 -51 -31 -38 -39 15 -10 12 -35 -5 -35 -8 0 -15
-7 -15 -15 0 -8 -7 -15 -14 -15 -8 0 -26 -10 -40 -23 -33 -31 -96 -28 -96 4 0
6 5 7 10 4 6 -4 18 -1 26 6 11 9 18 9 26 1 19 -19 26 -14 33 19 5 22 11 29 22
25 12 -5 14 -1 10 14 -3 12 1 23 10 29 13 7 13 12 3 30 -6 13 -10 24 -8 25 18
12 65 29 75 27 6 -1 14 3 18 9 3 5 -1 10 -9 10 -8 0 -18 5 -21 10 -8 14 5 12
34 -4z m165 -12 c8 -21 9 -18 -13 -43 -11 -13 -22 -28 -25 -34 -3 -9 -7 -8
-14 2 -6 8 -17 11 -32 6 -20 -6 -21 -5 -9 8 8 8 18 13 22 10 13 -8 47 28 47
49 0 22 16 24 24 2z m-594 -64 c0 -5 -5 -10 -11 -10 -5 0 -7 5 -4 10 3 6 8 10
11 10 2 0 4 -4 4 -10z m-315 -31 c-6 -45 -15 -49 -15 -6 0 21 4 37 9 37 5 0 8
-14 6 -31z m1115 17 c0 -3 -4 -8 -10 -11 -5 -3 -10 -1 -10 4 0 6 5 11 10 11 6
0 10 -2 10 -4z m-602 -34 c-16 -9 -28 -22 -28 -29 0 -7 -4 -13 -10 -13 -10 0
-3 27 13 48 5 6 19 12 31 12 19 -1 19 -2 -6 -18z m-471 -62 c0 -22 4 -48 8
-58 6 -15 8 -14 20 8 13 23 14 23 15 5 0 -12 5 -26 10 -31 12 -12 -6 -74 -22
-74 -25 0 -40 35 -47 105 -4 42 -5 78 -2 80 11 12 16 2 18 -35z m48 30 c3 -5
-1 -10 -9 -10 -9 0 -16 5 -16 10 0 6 4 10 9 10 6 0 13 -4 16 -10z m974 -24
c-9 -18 -17 -25 -28 -20 -9 3 -21 7 -28 8 -25 4 -26 16 -2 16 14 0 34 6 45 14
25 19 27 15 13 -18z m-559 -5 c0 -6 -4 -13 -10 -16 -5 -3 -10 1 -10 9 0 9 5
16 10 16 6 0 10 -4 10 -9z m-487 -176 c5 -48 4 -53 -3 -25 -5 19 -12 73 -14
120 -4 73 -4 77 3 25 5 -33 11 -87 14 -120z m944 149 c-3 -3 -12 -4 -19 -1 -8
3 -5 6 6 6 11 1 17 -2 13 -5z m103 -69 c-7 -9 -15 -13 -19 -10 -3 3 1 10 9 15
21 14 24 12 10 -5z m-234 -10 c-8 -8 -18 -15 -22 -15 -3 0 -1 7 6 15 7 8 17
15 22 15 5 0 3 -7 -6 -15z m1144 5 c0 -5 -7 -10 -15 -10 -8 0 -15 5 -15 10 0
6 7 10 15 10 8 0 15 -4 15 -10z m-1163 -46 c-3 -3 -12 -4 -19 -1 -8 3 -5 6 6
6 11 1 17 -2 13 -5z m2833 -4 c0 -5 -4 -10 -10 -10 -5 0 -10 5 -10 10 0 6 5
10 10 10 6 0 10 -4 10 -10z m-2648 -32 c-9 -9 -12 -7 -12 12 0 19 3 21 12 12
9 -9 9 -15 0 -24z m2649 -1 c-6 -8 -8 -16 -5 -19 3 -3 0 -9 -7 -14 -8 -4 -10
-3 -5 4 4 7 1 12 -6 12 -8 1 -6 6 6 15 25 19 32 19 17 2z m-3573 -100 c11 -67
0 -64 -17 5 -14 58 -14 75 -2 63 6 -6 14 -36 19 -68z m962 54 c0 -6 -4 -13
-10 -16 -5 -3 -10 1 -10 9 0 9 5 16 10 16 6 0 10 -4 10 -9z m2605 -11 c3 -5 1
-10 -4 -10 -6 0 -11 5 -11 10 0 6 2 10 4 10 3 0 8 -4 11 -10z m-3591 -80 c4
-21 3 -31 -3 -25 -5 6 -12 33 -15 60 -6 52 5 31 18 -35z m2932 65 c10 -8 30
-15 44 -15 19 0 21 -3 12 -12 -10 -10 -17 -10 -32 0 -26 16 -38 15 -57 -4 -20
-20 -52 -14 -70 13 -14 21 -13 22 16 21 17 -1 34 2 38 5 10 11 28 8 49 -8z
m-121 -5 c11 -18 -16 -40 -47 -40 -26 0 -29 2 -18 15 7 8 9 15 4 16 -12 1 27
17 43 18 6 1 15 -4 18 -9z m-110 -30 c25 -9 31 -31 10 -32 -6 0 -28 -9 -50
-20 -22 -11 -34 -14 -27 -7 18 19 15 29 -9 29 -24 0 -16 18 15 30 28 12 30 12
61 0z m-820 -40 c-3 -5 -15 -10 -26 -10 -10 0 -19 5 -19 10 0 6 12 10 26 10
14 0 23 -4 19 -10z m1160 0 c-3 -5 0 -10 8 -10 19 0 26 -20 33 -89 l6 -56 -34
-13 c-19 -6 -54 -12 -79 -12 -24 -1 -62 -7 -84 -15 -22 -8 -57 -15 -77 -15
-20 0 -40 -5 -43 -10 -5 -9 -92 -5 -101 4 -1 0 -5 16 -9 34 -5 25 -3 32 9 32
9 0 16 5 16 11 0 8 4 8 15 -1 18 -15 34 -5 28 19 -5 20 -1 22 107 46 36 8 94
30 130 49 67 37 86 43 75 26z m-199 -10 c44 0 25 -17 -48 -44 -40 -15 -90 -38
-110 -52 -52 -34 -80 -32 -76 4 2 18 11 30 28 37 13 6 47 22 75 37 34 19 59
26 79 23 16 -3 39 -5 52 -5z m-2630 -52 c0 -30 8 -67 17 -85 14 -26 15 -36 5
-52 -10 -16 -15 -9 -39 63 l-27 81 21 23 c11 12 21 22 22 22 0 0 1 -24 1 -52z
m-167 9 c0 -21 -1 -21 -9 -2 -12 28 -12 37 0 30 6 -3 10 -16 9 -28z m76 -297
c21 -47 42 -91 48 -98 5 -7 7 -15 4 -19 -6 -5 -107 198 -107 214 0 4 -11 34
-24 67 -13 34 -26 79 -30 101 -3 22 11 -9 33 -70 21 -60 55 -148 76 -195z
m1541 265 c-3 -8 1 -18 10 -23 11 -6 8 -13 -17 -31 -22 -17 -28 -26 -20 -34 6
-6 11 -19 11 -29 0 -10 7 -18 16 -18 10 0 14 -7 12 -22 -2 -18 2 -23 17 -21
34 4 78 -16 120 -52 56 -50 74 -47 68 10 -4 34 0 53 16 81 34 57 92 124 107
124 22 0 18 -8 -40 -79 -61 -75 -80 -114 -71 -149 4 -17 -10 -46 -61 -120
l-66 -97 6 -73 6 -73 -53 5 c-118 11 -176 64 -195 179 -4 23 -12 41 -17 39
-14 -4 -7 -77 10 -118 17 -41 3 -46 -37 -14 -43 33 -71 106 -70 177 2 56 6 67
44 118 41 55 81 85 113 85 11 0 15 11 15 43 0 45 12 73 27 64 5 -3 17 5 27 19
21 27 31 31 22 9z m-1581 -45 c9 -27 21 -50 26 -50 6 0 7 5 4 11 -4 6 4 5 16
-3 13 -7 25 -14 27 -15 2 0 -2 -10 -9 -22 -10 -15 -16 -17 -26 -9 -17 14 -17
-1 2 -45 8 -20 15 -42 15 -49 -1 -27 -89 195 -90 225 0 4 4 7 9 7 5 0 17 -22
26 -50z m2335 2 c77 -24 85 -31 97 -79 10 -38 9 -43 -6 -43 -13 0 -17 9 -16
38 0 26 -4 36 -14 34 -7 -2 -21 4 -30 11 -9 8 -34 24 -56 35 -49 26 -45 27 25
4z m-506 -8 c4 -10 1 -14 -6 -12 -15 5 -23 28 -10 28 5 0 13 -7 16 -16z m-641
-43 c-4 -20 -7 -62 -7 -93 3 -92 -30 -48 -46 62 -9 63 -1 79 36 72 24 -4 25
-7 17 -41z m-925 21 c6 -18 -15 -14 -22 4 -4 10 -1 14 6 12 6 -2 14 -10 16
-16z m2017 -22 c3 -5 2 -10 -4 -10 -5 0 -13 5 -16 10 -3 6 -2 10 4 10 5 0 13
-4 16 -10z m-1585 -44 c0 -3 -4 -8 -10 -11 -5 -3 -10 -1 -10 4 0 6 5 11 10 11
6 0 10 -2 10 -4z m1048 -24 c23 -29 12 -33 -28 -11 -22 13 -40 26 -40 31 0 13
54 -3 68 -20z m581 14 c22 -4 25 -26 4 -25 -10 0 -36 9 -58 20 l-40 19 40 -5
c22 -3 47 -7 54 -9z m220 -42 c2 -2 -14 4 -37 14 -23 9 -42 22 -42 29 0 10 58
-21 79 -43z m-1749 3 c0 -5 -7 -4 -15 3 -8 7 -15 20 -15 29 1 13 3 13 15 -3 8
-11 15 -24 15 -29z m320 19 c0 -3 -4 -8 -10 -11 -5 -3 -10 -1 -10 4 0 6 5 11
10 11 6 0 10 -2 10 -4z m-510 -36 c0 -5 -7 -10 -15 -10 -8 0 -15 5 -15 10 0 6
7 10 15 10 8 0 15 -4 15 -10z m50 0 c0 -5 -4 -10 -10 -10 -5 0 -10 5 -10 10 0
6 5 10 10 10 6 0 10 -4 10 -10z m-553 -20 c-1 -22 -17 -28 -17 -7 0 12 9 27
16 27 2 0 2 -9 1 -20z m1898 10 c-3 -5 -11 -10 -16 -10 -6 0 -7 5 -4 10 3 6
11 10 16 10 6 0 7 -4 4 -10z m-1282 -15 c-3 -9 -8 -14 -10 -11 -3 3 -2 9 2 15
9 16 15 13 8 -4z m167 -9 c0 -3 -4 -8 -10 -11 -5 -3 -10 -1 -10 4 0 6 5 11 10
11 6 0 10 -2 10 -4z m-780 -86 c0 -8 -9 2 -20 23 -26 48 -26 61 0 22 11 -16
20 -37 20 -45z m867 -22 c-3 -8 -6 -5 -6 6 -1 11 2 17 5 13 3 -3 4 -12 1 -19z
m-1 -95 c-11 -11 -19 6 -11 24 8 17 8 17 12 0 3 -10 2 -21 -1 -24z m-714 -41
c23 -32 52 -71 63 -86 32 -44 71 -82 112 -110 21 -15 38 -30 38 -34 0 -8 80
-92 88 -92 3 0 4 18 2 40 -4 45 -6 44 46 28 43 -12 46 -20 24 -71 -19 -45 -9
-75 35 -108 45 -34 79 -68 124 -123 38 -47 40 -48 56 -30 32 37 54 44 81 23
13 -10 29 -19 36 -19 6 0 18 -6 25 -13 7 -8 31 -17 53 -21 56 -10 58 -11 73
-19 7 -5 12 -4 12 2 0 7 24 11 58 11 62 1 223 22 287 38 104 26 95 29 95 -33
0 -30 5 -55 10 -55 6 0 10 6 10 14 0 8 4 26 10 41 l10 26 32 -24 c18 -14 59
-39 92 -57 68 -38 64 -44 -43 -58 -80 -12 -104 -22 -50 -22 19 0 64 -3 101 -6
48 -5 72 -3 83 6 12 10 23 10 58 -3 69 -25 100 -30 92 -15 -4 7 9 -5 28 -27
33 -37 34 -40 15 -47 -29 -11 -273 -28 -346 -23 -34 2 -84 8 -110 14 -26 6
-104 22 -175 37 -409 83 -756 279 -1014 573 -111 126 -205 268 -146 220 15
-13 15 -12 2 9 -8 12 -20 20 -26 17 -7 -2 -18 6 -24 18 -9 18 -9 20 2 10 16
-15 33 -17 24 -3 -6 9 1 30 10 30 2 0 23 -26 47 -58z m923 38 c3 -5 -1 -10 -9
-10 -9 0 -16 5 -16 10 0 6 4 10 9 10 6 0 13 -4 16 -10z m-807 -53 c29 -30 31
-35 17 -47 -8 -7 -16 -11 -18 -9 -22 39 -44 89 -38 89 4 0 22 -15 39 -33z
m882 29 c0 -3 -4 -8 -10 -11 -5 -3 -10 -1 -10 4 0 6 5 11 10 11 6 0 10 -2 10
-4z m496 -12 c-3 -9 -6 -18 -6 -20 0 -2 -7 -4 -15 -4 -13 0 -14 4 -5 20 13 24
35 27 26 4z m-1430 -223 c119 -141 284 -282 438 -374 38 -22 64 -43 58 -45
-13 -4 -120 62 -222 137 -135 99 -334 315 -424 458 -42 69 -30 62 22 -12 26
-37 84 -111 128 -164z m521 204 c0 -8 -6 -15 -14 -15 -17 0 -17 17 0 23 6 3
12 6 13 6 0 1 1 -6 1 -14z m221 2 c15 -18 -14 -61 -35 -53 -11 5 -13 2 -9 -9
6 -16 -30 -75 -45 -75 -13 0 13 74 40 112 29 42 34 44 49 25z m162 -23 c0 -8
-4 -12 -10 -9 -5 3 -10 10 -10 16 0 5 5 9 10 9 6 0 10 -7 10 -16z m1860 8 c0
-19 -85 -122 -102 -122 -8 0 0 56 13 81 4 9 23 23 41 32 37 19 48 21 48 9z
m132 -21 c51 27 49 -1 -4 -71 -105 -139 -231 -259 -203 -192 13 29 35 115 35
137 0 26 32 96 53 117 12 12 25 14 59 8 24 -5 50 -4 60 1z m-2532 -51 c0 -5
-2 -10 -4 -10 -3 0 -8 5 -11 10 -3 6 -1 10 4 10 6 0 11 -4 11 -10z m380 -10
c0 -5 -4 -10 -10 -10 -5 0 -10 5 -10 10 0 6 5 10 10 10 6 0 10 -4 10 -10z
m215 -100 c-3 -5 -10 -10 -16 -10 -5 0 -9 5 -9 10 0 6 7 10 16 10 8 0 12 -4 9
-10z m-608 -22 c-3 -8 -6 -5 -6 6 -1 11 2 17 5 13 3 -3 4 -12 1 -19z m398 12
c3 -5 -1 -10 -9 -10 -8 0 -18 5 -21 10 -3 6 1 10 9 10 8 0 18 -4 21 -10z m575
-30 c0 -5 -5 -10 -11 -10 -5 0 -7 5 -4 10 3 6 8 10 11 10 2 0 4 -4 4 -10z
m-170 -30 c0 -5 -2 -10 -4 -10 -3 0 -8 5 -11 10 -3 6 -1 10 4 10 6 0 11 -4 11
-10z m-80 -241 c0 -6 -4 -7 -10 -4 -5 3 -10 11 -10 16 0 6 5 7 10 4 6 -3 10
-11 10 -16z m-472 -163 c37 -18 106 -48 154 -66 49 -19 86 -35 84 -37 -10 -11
-316 117 -316 132 0 9 10 5 78 -29z m331 -122 c10 -9 -56 -3 -69 7 -11 7 -4 8
25 3 22 -4 42 -8 44 -10z m91 -24 l25 -8 -25 -1 c-14 0 -32 4 -40 9 -13 9 -13
10 0 9 8 -1 26 -5 40 -9z m57 -16 c-3 -3 -12 -4 -19 -1 -8 3 -5 6 6 6 11 1 17
-2 13 -5z"/>
<path d="M3365 2609 c-11 -17 1 -21 15 -4 8 9 8 15 2 15 -6 0 -14 -5 -17 -11z"/>
<path d="M3415 2600 c3 -5 8 -10 11 -10 2 0 4 5 4 10 0 6 -5 10 -11 10 -5 0
-7 -4 -4 -10z"/>
<path d="M1895 2240 c3 -5 10 -10 16 -10 5 0 9 5 9 10 0 6 -7 10 -16 10 -8 0
-12 -4 -9 -10z"/>
<path d="M1786 2161 c-3 -5 1 -14 8 -20 16 -13 32 2 21 19 -8 12 -22 13 -29 1z"/>
<path d="M1710 2130 c0 -5 5 -10 10 -10 6 0 10 5 10 10 0 6 -4 10 -10 10 -5 0
-10 -4 -10 -10z"/>
<path d="M3655 1580 c-3 -5 -1 -10 4 -10 6 0 11 5 11 10 0 6 -2 10 -4 10 -3 0
-8 -4 -11 -10z"/>
<path d="M2371 1382 c-6 -12 -11 -28 -11 -36 0 -9 -4 -16 -9 -16 -5 0 -11 -9
-14 -20 -10 -38 10 -20 33 30 22 48 23 83 1 42z"/>
<path d="M1167 1064 c3 -7 9 -14 14 -14 14 0 10 17 -5 23 -10 4 -13 1 -9 -9z"/>
<path d="M1201 1023 c7 -12 15 -20 18 -17 3 2 -3 12 -13 22 -17 16 -18 16 -5
-5z"/>
<path d="M1345 891 c-3 -5 -1 -12 5 -16 5 -3 10 1 10 9 0 18 -6 21 -15 7z"/>
<path d="M1470 862 c0 -6 8 -16 18 -21 16 -10 16 -10 -1 -11 -25 0 -16 -24 11
-28 30 -5 28 19 -3 48 -14 13 -25 18 -25 12z"/>
<path d="M1935 510 c-3 -5 -2 -10 4 -10 5 0 13 5 16 10 3 6 2 10 -4 10 -5 0
-13 -4 -16 -10z"/>
<path d="M2870 346 c0 -2 7 -7 16 -10 8 -3 12 -2 9 4 -6 10 -25 14 -25 6z"/>
<path d="M1890 3900 c-8 -5 -10 -10 -5 -10 6 0 17 5 25 10 8 5 11 10 5 10 -5
0 -17 -5 -25 -10z"/>
<path d="M1829 3869 l-24 -20 30 17 c39 24 40 24 28 24 -6 0 -21 -9 -34 -21z"/>
<path d="M1718 3863 c-10 -2 -18 -9 -18 -14 0 -14 16 -11 30 6 7 8 11 14 9 14
-2 -1 -12 -3 -21 -6z"/>
<path d="M1550 3805 c-6 -16 -17 -25 -32 -25 -17 0 -19 -3 -9 -9 10 -7 11 -13
2 -30 -18 -34 -30 -24 -26 21 5 50 1 58 -25 51 -15 -4 -19 -11 -15 -27 5 -16
4 -18 -4 -6 -5 8 -13 11 -16 8 -10 -9 4 -28 19 -28 8 0 19 -13 26 -30 16 -39
33 -38 77 6 25 26 32 38 23 44 -9 6 -9 12 -1 29 8 14 8 21 1 21 -6 0 -15 -11
-20 -25z"/>
<path d="M1710 3814 c0 -8 5 -12 10 -9 6 4 8 11 5 16 -9 14 -15 11 -15 -7z"/>
<path d="M1383 3743 c-16 -6 -17 -23 -1 -23 6 0 26 -11 44 -25 36 -27 53 -33
35 -11 -6 8 -11 18 -10 22 1 5 1 16 0 24 -1 11 -4 11 -13 2 -9 -9 -15 -9 -27
2 -9 7 -22 11 -28 9z"/>
<path d="M1553 3715 c-9 -25 4 -29 17 -6 7 15 7 21 0 21 -6 0 -13 -7 -17 -15z"/>
<path d="M3560 3710 c0 -5 7 -10 15 -10 8 0 15 -5 15 -11 0 -6 6 -9 14 -6 7 3
19 0 25 -6 6 -6 13 -8 17 -5 3 4 -13 16 -37 27 -49 24 -49 24 -49 11z"/>
<path d="M1505 3670 c-3 -5 -2 -10 4 -10 5 0 13 5 16 10 3 6 2 10 -4 10 -5 0
-13 -4 -16 -10z"/>
<path d="M2767 3673 c-4 -3 -7 -11 -7 -17 0 -6 5 -5 12 2 6 6 9 14 7 17 -3 3
-9 2 -12 -2z"/>
<path d="M1905 3620 c3 -5 10 -10 16 -10 5 0 9 5 9 10 0 6 -7 10 -16 10 -8 0
-12 -4 -9 -10z"/>
<path d="M2746 3603 c-7 -24 10 -50 23 -37 3 3 0 8 -6 12 -8 5 -9 13 -3 22 12
19 12 30 1 30 -5 0 -12 -12 -15 -27z"/>
<path d="M3700 3622 c0 -11 41 -34 48 -28 3 4 -3 13 -14 21 -21 16 -34 19 -34
7z"/>
<path d="M1379 3573 l-24 -28 28 24 c25 23 32 31 24 31 -2 0 -14 -12 -28 -27z"/>
<path d="M1900 3580 c0 -5 5 -10 10 -10 6 0 10 -9 10 -20 0 -26 -5 -25 -44 5
-33 25 -116 36 -116 15 0 -5 -12 -16 -27 -24 l-28 -14 29 -12 30 -11 -34 -20
c-18 -11 -42 -18 -54 -16 -15 4 -28 -3 -44 -24 -20 -25 -21 -29 -7 -29 14 0
16 -6 11 -31 -3 -17 -6 -35 -6 -40 0 -5 -4 -9 -10 -9 -5 0 -10 10 -10 23 -1
21 -1 21 -11 3 -17 -28 -5 -107 19 -126 20 -16 20 -17 1 -29 -16 -9 -23 -9
-35 4 -21 21 -25 19 -15 -7 11 -29 78 -43 102 -22 8 8 21 14 27 14 6 0 17 9
25 20 7 11 29 30 47 43 21 13 37 34 41 52 3 17 8 37 10 45 3 10 -3 15 -16 15
-19 0 -21 -4 -24 -52 0 -13 -7 -23 -14 -23 -8 0 -19 -10 -25 -22 -11 -21 -11
-20 -6 10 7 38 -11 44 -20 6 -7 -27 -32 -28 -30 0 1 9 -4 16 -12 16 -8 0 -14
5 -14 10 0 6 -5 10 -11 10 -6 0 -9 -9 -6 -20 3 -11 1 -20 -4 -20 -11 0 -11 31
0 49 6 9 18 11 35 7 40 -10 76 3 76 28 0 11 1 31 1 44 0 24 9 28 26 11 18 -18
99 8 118 37 20 30 41 31 49 2 8 -30 46 -92 52 -85 3 3 1 14 -4 24 -6 10 -13
45 -15 78 -3 33 -6 62 -6 64 -1 2 -7 -2 -15 -8 -9 -8 -16 -8 -20 -2 -4 5 2 14
11 20 17 10 17 10 1 11 -10 0 -18 5 -18 10 0 6 -7 10 -15 10 -8 0 -15 -4 -15
-10z m0 -80 c0 -5 -2 -10 -4 -10 -3 0 -8 5 -11 10 -3 6 -1 10 4 10 6 0 11 -4
11 -10z m-160 -100 c0 -5 -4 -10 -10 -10 -5 0 -10 5 -10 10 0 6 5 10 10 10 6
0 10 -4 10 -10z"/>
<path d="M3180 3565 c-5 -14 -12 -25 -16 -25 -3 0 -4 7 0 15 5 13 2 14 -17 4
-12 -7 -30 -22 -40 -35 -23 -29 -51 -38 -77 -24 -17 9 -20 8 -20 -7 0 -10 -9
-29 -20 -43 -11 -14 -20 -30 -20 -36 0 -6 -12 -23 -26 -38 l-27 -26 27 0 c16
0 38 -11 53 -27 18 -17 28 -22 31 -13 5 15 34 44 56 57 11 6 19 29 23 63 8 67
36 100 87 100 19 0 38 5 41 10 3 6 2 10 -4 10 -5 0 -13 9 -16 20 -9 27 -24 25
-35 -5z m-90 -149 c0 -20 -19 -31 -32 -18 -6 6 -7 15 -4 21 10 16 36 13 36 -3z"/>
<path d="M1440 3541 c0 -5 7 -14 15 -21 16 -14 18 -10 9 14 -6 17 -24 22 -24
7z"/>
<path d="M1405 3520 c3 -5 8 -10 11 -10 2 0 4 5 4 10 0 6 -5 10 -11 10 -5 0
-7 -4 -4 -10z"/>
<path d="M923 3503 c-7 -2 -13 -11 -13 -18 0 -15 -51 -55 -69 -55 -6 0 -11 6
-11 14 0 7 -6 19 -14 25 -10 8 -19 6 -39 -9 -34 -27 -26 -54 15 -48 18 3 25 1
19 -5 -5 -5 -20 -10 -33 -11 -19 -1 -23 -7 -23 -32 0 -21 -9 -41 -27 -59 -29
-28 -35 -45 -19 -45 5 0 12 9 16 19 10 31 34 34 47 5 7 -14 17 -23 25 -20 7 3
13 -1 13 -9 0 -7 -10 -15 -22 -17 -13 -2 -24 -11 -26 -23 -3 -16 -1 -18 9 -7
15 14 49 16 49 3 0 -5 -11 -23 -25 -40 -25 -29 -25 -30 -6 -40 35 -19 56 -12
81 29 25 40 45 48 113 42 10 -1 15 3 12 8 -3 6 1 13 9 16 22 8 20 31 -4 44
-16 8 -22 6 -35 -14 -9 -13 -27 -26 -40 -29 -25 -4 -34 6 -15 18 6 3 10 18 10
32 0 20 4 24 18 18 23 -9 102 -13 102 -5 0 3 -10 17 -22 29 -19 21 -23 22 -33
8 -10 -14 -15 -13 -44 13 -34 31 -55 100 -31 100 6 0 14 -9 17 -20 6 -22 18
-26 28 -10 3 6 15 10 26 10 10 0 19 7 19 15 0 14 -14 19 -47 18 -15 -1 -17 13
-3 22 6 3 10 13 10 21 0 14 -14 17 -37 7z m-123 -63 c0 -5 -7 -10 -16 -10 -8
0 -12 5 -9 10 3 6 10 10 16 10 5 0 9 -4 9 -10z m60 -134 c0 -3 -4 -8 -10 -11
-5 -3 -10 -1 -10 4 0 6 5 11 10 11 6 0 10 -2 10 -4z m30 -26 c0 -5 -4 -10 -10
-10 -5 0 -10 5 -10 10 0 6 5 10 10 10 6 0 10 -4 10 -10z"/>
<path d="M1360 3486 c0 -27 7 -31 34 -20 17 7 22 34 7 34 -5 0 -16 3 -25 6
-12 5 -16 0 -16 -20z"/>
<path d="M2459 3502 c0 -4 -2 -23 -5 -42 -3 -19 -6 -47 -8 -61 -1 -14 -14 -38
-27 -52 -46 -49 -178 -41 -211 13 -7 11 -19 20 -26 20 -9 0 -12 6 -8 18 5 14
4 14 -9 -2 -8 -11 -15 -25 -15 -32 0 -25 -27 -35 -69 -25 -32 7 -41 6 -41 -4
0 -7 -7 -15 -15 -19 -17 -6 -21 9 -5 19 15 9 12 22 -5 29 -21 8 -45 -3 -45
-21 0 -13 -3 -13 -15 -3 -8 7 -15 21 -15 31 0 25 -12 24 -28 -1 -11 -19 -14
-19 -28 -5 -10 9 -13 23 -9 36 6 18 5 19 -13 10 -35 -18 -36 -32 -6 -58 16
-13 22 -22 13 -20 -13 4 -16 -2 -13 -30 2 -28 -1 -33 -13 -29 -20 8 -43 -11
-43 -35 0 -27 42 -34 81 -15 40 20 45 20 29 1 -7 -9 -11 -17 -9 -20 8 -7 30
11 32 26 4 23 17 39 33 39 17 0 18 -33 3 -62 -9 -17 -13 -18 -21 -7 -7 11 -8
9 -6 -6 3 -14 10 -19 25 -17 12 2 24 -2 28 -8 9 -15 45 -12 45 4 0 8 5 18 12
22 8 5 9 2 5 -10 -5 -14 -3 -17 8 -12 8 3 15 2 15 -3 0 -5 10 -11 22 -14 20
-6 20 -7 4 -32 -10 -15 -15 -33 -12 -41 3 -9 1 -12 -4 -9 -6 3 -10 0 -10 -8 0
-12 -9 -14 -39 -10 -36 5 -41 3 -45 -18 -8 -34 6 -90 26 -103 26 -16 71 8 63
34 -9 28 32 27 57 -2 40 -47 36 -66 -28 -128 -32 -31 -66 -59 -74 -62 -13 -4
-13 -9 -2 -33 9 -19 10 -31 2 -39 -16 -16 -12 -25 9 -19 10 3 21 0 25 -5 3 -6
-29 -13 -84 -17 -50 -4 -93 -12 -97 -17 -5 -10 33 -47 48 -48 3 0 16 9 29 20
21 18 25 19 33 5 7 -13 12 -14 23 -4 8 6 14 8 15 3 0 -5 2 -16 4 -24 17 -71
18 -83 7 -76 -7 4 -12 2 -12 -5 0 -7 -9 -2 -20 11 l-20 23 -29 -27 c-16 -16
-31 -36 -34 -46 -7 -28 40 -33 85 -10 22 12 40 15 43 10 3 -6 17 -10 31 -10
30 0 46 36 39 88 -7 43 13 88 38 86 9 -1 19 6 22 16 3 10 12 21 20 24 18 6 9
36 -11 36 -8 0 -14 6 -14 14 0 18 40 47 53 39 5 -3 13 1 18 8 8 12 10 12 18 0
6 -10 10 -10 16 -1 4 6 5 12 4 13 -2 1 -19 13 -38 26 -20 14 -31 18 -29 10 7
-19 -10 -49 -27 -49 -18 0 -19 12 -2 29 10 10 9 11 -5 6 -10 -4 -18 -11 -18
-16 0 -5 -7 -9 -15 -9 -9 0 -15 -9 -15 -22 0 -30 -11 -68 -19 -68 -3 0 -11 11
-18 25 -9 20 -8 25 2 25 8 0 11 7 8 20 -3 12 1 22 11 26 10 4 16 18 16 35 0
22 5 29 20 29 11 0 20 -4 20 -10 0 -18 20 -11 45 16 14 15 25 39 25 54 0 35
28 60 68 60 32 0 32 0 32 54 0 40 -4 55 -16 60 -23 9 -46 7 -40 -2 3 -5 -2
-19 -11 -31 -16 -24 -18 -24 -124 -5 l-37 6 6 64 c3 45 1 64 -7 64 -16 0 -33
50 -26 77 8 32 44 63 74 63 33 0 91 -35 91 -55 0 -24 25 -28 60 -10 18 9 43
15 55 13 18 -4 28 4 48 39 26 42 35 48 105 71 29 9 34 8 48 -14 9 -13 14 -33
11 -44 -3 -11 -3 -20 -1 -20 10 0 44 41 44 53 0 7 4 17 9 23 4 5 -8 24 -30 46
-21 20 -35 30 -32 22 4 -10 -3 -14 -27 -14 -23 0 -41 9 -66 34 -19 19 -34 31
-35 28z m-561 -229 c-2 -12 -14 -19 -33 -20 -27 -2 -28 -2 -7 7 12 5 22 14 22
20 0 5 5 10 11 10 6 0 9 -8 7 -17z m182 -38 c0 -12 -29 -3 -34 10 -4 13 -2 14
14 5 11 -6 20 -13 20 -15z m60 -220 c0 -17 -2 -18 -25 -9 -13 5 -14 8 -3 15
19 13 28 11 28 -6z m75 -55 c3 -5 1 -10 -4 -10 -6 0 -11 5 -11 10 0 6 2 10 4
10 3 0 8 -4 11 -10z"/>
<path d="M1453 3480 c-7 -11 -13 -32 -13 -46 0 -18 -4 -25 -14 -21 -8 3 -22
-1 -33 -9 -16 -12 -15 -13 17 -8 19 3 43 7 52 9 11 2 15 -2 11 -14 -3 -10 3
-7 16 8 22 24 27 41 13 41 -4 0 -8 12 -7 27 0 34 -25 41 -42 13z"/>
<path d="M1520 3480 c-9 -6 -10 -10 -3 -10 6 0 15 5 18 10 8 12 4 12 -15 0z"/>
<path d="M2777 3473 c-4 -3 -7 -18 -7 -33 0 -37 -17 -49 -59 -44 -20 2 -30 1
-22 -2 7 -4 29 -22 49 -41 34 -33 36 -34 43 -15 9 25 26 36 34 22 8 -13 65
-13 65 0 0 6 -4 10 -9 10 -20 0 -71 62 -71 86 0 23 -10 31 -23 17z"/>
<path d="M1515 3450 c-3 -5 3 -10 14 -10 12 0 21 5 21 10 0 6 -6 10 -14 10 -8
0 -18 -4 -21 -10z"/>
<path d="M1190 3383 c-56 -61 -170 -223 -157 -223 3 0 20 24 38 52 19 29 67
92 107 140 40 49 71 88 68 88 -2 0 -27 -26 -56 -57z"/>
<path d="M2935 3420 c3 -5 11 -10 16 -10 6 0 7 5 4 10 -3 6 -11 10 -16 10 -6
0 -7 -4 -4 -10z"/>
<path d="M1785 3400 c-3 -5 -1 -10 4 -10 6 0 11 5 11 10 0 6 -2 10 -4 10 -3 0
-8 -4 -11 -10z"/>
<path d="M2377 3384 c-14 -14 -7 -35 11 -32 9 2 17 10 17 17 0 16 -18 25 -28
15z"/>
<path d="M3438 3303 c12 -17 22 -38 22 -47 0 -9 4 -16 9 -16 16 0 -8 56 -32
77 -21 18 -21 18 1 -14z"/>
<path d="M3315 3279 c-4 -5 -4 -23 0 -39 5 -24 12 -30 36 -32 16 -1 43 -2 59
-3 38 -2 38 13 3 47 -30 27 -88 44 -98 27z"/>
<path d="M710 3231 c0 -5 -7 -8 -16 -7 -14 1 -17 -10 -18 -58 -1 -38 -6 -61
-13 -64 -7 -2 -13 -14 -13 -26 0 -12 -7 -46 -16 -75 -22 -76 -10 -74 16 3 11
35 28 70 36 77 9 8 11 15 5 18 -11 7 7 80 29 120 7 14 7 21 0 21 -5 0 -10 -4
-10 -9z"/>
<path d="M2500 3183 c0 -24 -15 -31 -23 -10 -3 7 -6 5 -6 -5 -1 -10 -7 -18
-13 -18 -16 -1 7 -15 41 -25 19 -6 23 -4 18 8 -3 9 -2 29 2 45 7 22 5 29 -5
29 -8 0 -14 -10 -14 -24z"/>
<path d="M2812 3189 c-10 -15 -21 -20 -38 -16 -25 4 -29 0 -16 -21 7 -10 16
-9 43 4 44 22 42 20 32 38 -7 13 -10 13 -21 -5z"/>
<path d="M723 3173 c-14 -29 -7 -54 12 -47 17 7 24 47 10 61 -8 7 -14 3 -22
-14z"/>
<path d="M1393 3192 c-29 -4 -30 -18 -2 -25 17 -5 20 -11 17 -31 -5 -26 5 -35
17 -16 3 5 18 9 33 9 58 1 71 5 61 18 -6 6 -17 9 -25 6 -8 -3 -25 3 -37 14
-29 26 -38 30 -64 25z"/>
<path d="M1888 3183 c7 -3 16 -2 19 1 4 3 -2 6 -13 5 -11 0 -14 -3 -6 -6z"/>
<path d="M1785 3170 c-3 -5 -15 -10 -26 -10 -10 0 -19 -5 -19 -11 0 -6 9 -8
20 -4 11 4 20 2 20 -4 0 -6 -6 -11 -12 -12 -7 0 -3 -4 9 -9 15 -6 21 -15 17
-25 -9 -24 25 -18 47 8 24 29 24 47 0 47 -10 0 -21 7 -25 15 -6 17 -22 20 -31
5z"/>
<path d="M2041 3131 c-7 -12 -17 -18 -26 -15 -10 4 -15 0 -15 -14 0 -11 8 -22
18 -24 14 -4 22 3 31 29 14 39 8 56 -8 24z"/>
<path d="M1915 3119 c-4 -5 -14 -8 -22 -5 -9 4 -21 -1 -29 -11 -19 -25 -17
-38 3 -22 9 8 14 9 10 3 -3 -6 3 -18 14 -27 21 -19 25 -42 8 -53 -13 -8 -31
16 -24 34 2 6 -2 12 -10 12 -8 0 -15 -4 -15 -10 0 -18 -31 -10 -51 13 l-18 22
-1 -32 c0 -26 -4 -33 -19 -33 -11 0 -23 5 -26 10 -3 6 -15 10 -26 10 -14 0
-19 -7 -19 -25 0 -16 -6 -25 -15 -25 -9 0 -15 9 -15 22 0 15 -3 19 -10 12 -15
-15 -1 -76 16 -70 14 5 40 -21 30 -31 -3 -3 -6 -1 -6 6 0 8 -6 11 -16 7 -10
-4 -22 1 -29 10 -14 20 -35 11 -35 -14 0 -15 2 -15 10 -2 8 12 10 11 10 -6 0
-12 7 -27 15 -34 9 -7 14 -19 11 -26 -3 -7 2 -15 10 -18 30 -11 12 -22 -42
-24 -44 -2 -55 1 -51 11 3 9 -7 18 -29 26 -45 16 -44 34 1 29 19 -2 35 -1 35
3 0 4 -25 32 -55 62 -55 54 -55 55 -33 69 22 15 22 15 -12 26 -19 6 -57 13
-85 16 -52 7 -52 6 2 -32 16 -12 16 -12 -7 -8 -18 4 -32 -2 -52 -21 -30 -28
-35 -25 -17 9 8 14 8 23 0 31 -8 8 -11 6 -11 -6 0 -11 -17 -21 -56 -33 -64
-18 -61 -32 8 -44 61 -12 98 -3 98 24 0 16 2 18 9 7 5 -7 14 -10 20 -6 7 4 18
1 26 -5 12 -10 16 -9 21 4 9 23 29 20 41 -6 24 -52 32 -77 25 -80 -5 -2 -18
-23 -30 -48 -19 -40 -20 -46 -7 -67 8 -12 15 -25 15 -28 0 -12 -48 -4 -83 15
-20 11 -46 20 -58 20 -19 0 -20 -2 -8 -17 12 -15 12 -16 -2 -11 -11 4 -20 -2
-28 -18 -15 -33 -14 -49 3 -63 11 -9 15 -6 20 15 11 40 16 24 6 -19 -4 -20 -4
-39 0 -42 5 -3 14 -21 20 -41 10 -30 9 -38 -6 -55 -20 -23 -39 -25 -30 -4 3 8
1 15 -5 15 -5 0 -9 8 -7 18 2 11 -3 17 -14 16 -14 -1 -16 4 -11 29 4 21 3 28
-5 23 -16 -10 -15 -101 1 -113 11 -10 39 -10 82 0 16 3 20 12 21 43 0 21 -3
44 -8 51 -5 6 -6 23 -2 37 6 25 9 26 50 22 40 -5 44 -4 44 16 l0 22 21 -22
c11 -12 17 -27 13 -33 -4 -8 1 -9 17 -4 33 10 33 11 10 34 -30 30 -26 43 9 23
28 -16 30 -16 44 3 19 25 20 52 4 58 -7 2 -10 8 -6 12 9 10 80 -4 73 -14 -7
-13 63 -19 76 -6 7 7 8 5 4 -7 -7 -18 -3 -21 47 -32 25 -6 26 -8 16 -43 -5
-21 -17 -46 -26 -55 -14 -16 -13 -18 4 -18 36 1 50 22 49 75 0 28 -6 61 -14
74 -11 19 -11 23 1 19 7 -3 18 -14 24 -26 12 -24 57 -62 73 -62 22 0 10 19
-19 32 -38 17 -38 42 0 88 23 26 30 44 30 76 0 34 5 47 26 63 14 11 32 17 41
14 11 -4 14 -3 9 6 -5 7 -19 16 -32 21 -15 6 -24 18 -24 31 0 15 5 19 15 15 8
-3 15 -1 15 4 0 6 -8 10 -19 10 -10 0 -24 7 -31 15 -11 13 -9 20 9 39 13 14
18 26 12 30 -5 4 -13 1 -16 -5z m-475 -104 c0 -8 -4 -15 -10 -15 -5 0 -10 7
-10 15 0 8 5 15 10 15 6 0 10 -7 10 -15z m328 -50 c4 -4 0 -6 -9 -2 -9 3 -21
1 -26 -4 -6 -6 -14 -5 -21 4 -10 11 -6 13 18 12 17 -1 33 -5 38 -10z m-29 -87
c1 -5 -3 -8 -9 -8 -5 0 -10 12 -9 28 0 24 1 25 9 7 5 -11 9 -23 9 -27z m-72
-84 c-3 -3 -12 -4 -19 -1 -8 3 -5 6 6 6 11 1 17 -2 13 -5z m-97 -73 c0 -5 -7
-11 -15 -15 -15 -5 -20 5 -8 17 9 10 23 9 23 -2z"/>
<path d="M1735 3100 c3 -5 8 -10 11 -10 2 0 4 5 4 10 0 6 -5 10 -11 10 -5 0
-7 -4 -4 -10z"/>
<path d="M1465 3090 c-4 -6 2 -13 12 -17 10 -3 21 -8 26 -10 4 -2 7 0 7 4 0
14 -38 34 -45 23z"/>
<path d="M1165 3070 c-8 -13 15 -24 27 -12 6 6 4 11 -6 15 -8 3 -18 2 -21 -3z"/>
<path d="M1230 3050 c0 -5 5 -10 11 -10 5 0 7 5 4 10 -3 6 -8 10 -11 10 -2 0
-4 -4 -4 -10z"/>
<path d="M1666 3045 c4 -8 9 -15 13 -15 8 0 37 19 31 21 -3 0 -15 2 -27 5 -17
3 -21 0 -17 -11z"/>
<path d="M1620 3040 c-13 -8 -12 -10 3 -10 9 0 17 5 17 10 0 12 -1 12 -20 0z"/>
<path d="M1185 3020 c-3 -5 -1 -10 4 -10 6 0 11 5 11 10 0 6 -2 10 -4 10 -3 0
-8 -4 -11 -10z"/>
<path d="M3295 3019 c-11 -17 1 -21 15 -4 8 9 8 15 2 15 -6 0 -14 -5 -17 -11z"/>
<path d="M725 3006 c-13 -16 -35 -54 -35 -61 0 -8 37 13 61 33 22 19 25 37 5
29 -8 -3 -16 -2 -18 3 -2 4 -7 3 -13 -4z"/>
<path d="M3395 2990 c-3 -5 -1 -10 4 -10 6 0 11 5 11 10 0 6 -2 10 -4 10 -3 0
-8 -4 -11 -10z"/>
<path d="M4207 2983 c-7 -10 21 -49 29 -40 3 3 -1 15 -9 27 -8 12 -17 18 -20
13z"/>
<path d="M1580 2950 c0 -5 5 -10 10 -10 6 0 10 5 10 10 0 6 -4 10 -10 10 -5 0
-10 -4 -10 -10z"/>
<path d="M3230 2950 c0 -5 5 -10 10 -10 6 0 10 5 10 10 0 6 -4 10 -10 10 -5 0
-10 -4 -10 -10z"/>
<path d="M4142 2948 c5 -15 28 -23 28 -10 0 5 -7 13 -16 16 -10 4 -14 1 -12
-6z"/>
<path d="M1370 2943 c0 -14 19 -38 25 -32 8 8 -5 39 -16 39 -5 0 -9 -3 -9 -7z"/>
<path d="M895 2919 c-4 -6 -5 -12 -2 -15 2 -3 7 2 10 11 7 17 1 20 -8 4z"/>
<path d="M601 2873 c-17 -62 -57 -124 -74 -117 -15 5 -39 -37 -41 -72 -2 -21
-9 -33 -72 -119 l-37 -50 35 35 c19 19 49 58 68 85 60 91 103 144 112 139 4
-3 4 -14 -2 -24 -6 -12 -7 -21 -1 -25 6 -3 15 4 21 15 13 24 28 26 26 4 0 -9
5 -19 12 -21 7 -3 10 1 6 10 -3 8 -1 18 5 22 6 3 11 14 10 23 0 11 -3 12 -6 5
-2 -7 -18 -13 -34 -13 -24 0 -29 4 -29 23 0 13 3 26 6 30 6 6 16 97 11 97 -2
0 -9 -21 -16 -47z"/>
<path d="M1395 2880 c-3 -5 -1 -10 4 -10 6 0 11 5 11 10 0 6 -2 10 -4 10 -3 0
-8 -4 -11 -10z"/>
<path d="M1216 2863 c-11 -27 -6 -33 26 -30 41 3 47 22 9 35 -24 8 -31 7 -35
-5z"/>
<path d="M2344 2857 c-6 -7 -10 -29 -9 -49 0 -20 -1 -35 -4 -33 -4 2 -20 -8
-36 -21 -17 -13 -25 -24 -18 -24 6 0 15 5 18 10 9 15 52 12 86 -6 17 -8 32
-14 33 -12 1 2 6 17 13 35 9 26 8 33 -4 37 -8 4 -19 4 -24 1 -4 -3 -11 7 -15
22 -12 58 -18 64 -40 40z"/>
<path d="M1295 2850 c3 -5 8 -10 11 -10 2 0 4 5 4 10 0 6 -5 10 -11 10 -5 0
-7 -4 -4 -10z"/>
<path d="M1383 2846 c5 -16 27 -19 27 -3 0 7 -7 14 -15 14 -9 0 -14 -5 -12
-11z"/>
<path d="M1180 2839 c0 -5 5 -7 10 -4 6 3 10 8 10 11 0 2 -4 4 -10 4 -5 0 -10
-5 -10 -11z"/>
<path d="M856 2823 c-6 -14 -5 -15 5 -6 7 7 10 15 7 18 -3 3 -9 -2 -12 -12z"/>
<path d="M490 2805 c0 -8 4 -15 10 -15 5 0 7 7 4 15 -4 8 -8 15 -10 15 -2 0
-4 -7 -4 -15z"/>
<path d="M1238 2813 c7 -3 16 -2 19 1 4 3 -2 6 -13 5 -11 0 -14 -3 -6 -6z"/>
<path d="M1896 2795 c-17 -26 -17 -28 -1 -21 10 3 25 1 34 -6 14 -11 14 -11 5
2 -7 8 -13 24 -15 34 -4 18 -6 17 -23 -9z"/>
<path d="M1160 2780 c0 -5 5 -10 11 -10 5 0 7 5 4 10 -3 6 -8 10 -11 10 -2 0
-4 -4 -4 -10z"/>
<path d="M1985 2760 c-3 -5 -2 -10 4 -10 5 0 13 5 16 10 3 6 2 10 -4 10 -5 0
-13 -4 -16 -10z"/>
<path d="M821 2729 c-6 -18 -9 -34 -7 -36 2 -2 9 10 15 28 6 18 9 34 7 36 -2
2 -9 -10 -15 -28z"/>
<path d="M1720 2700 c0 -5 5 -10 11 -10 5 0 7 5 4 10 -3 6 -8 10 -11 10 -2 0
-4 -4 -4 -10z"/>
<path d="M1988 2693 c6 -2 18 -2 25 0 6 3 1 5 -13 5 -14 0 -19 -2 -12 -5z"/>
<path d="M1170 2639 c0 -5 5 -7 10 -4 6 3 10 8 10 11 0 2 -4 4 -10 4 -5 0 -10
-5 -10 -11z"/>
<path d="M2210 2575 c0 -18 19 -40 26 -32 4 4 0 15 -9 24 -9 10 -17 13 -17 8z"/>
<path d="M1894 2562 c-9 -6 -22 -31 -25 -50 0 -4 -5 -12 -10 -18 -9 -10 -3
-24 11 -24 13 0 52 82 44 90 -5 5 -14 6 -20 2z"/>
<path d="M2332 2529 c2 -7 10 -15 17 -17 8 -3 12 1 9 9 -2 7 -10 15 -17 17 -8
3 -12 -1 -9 -9z"/>
<path d="M3296 2504 c-9 -24 -7 -27 9 -10 17 17 19 26 6 26 -5 0 -12 -7 -15
-16z"/>
<path d="M1420 2500 c0 -5 5 -10 10 -10 6 0 10 5 10 10 0 6 -4 10 -10 10 -5 0
-10 -4 -10 -10z"/>
<path d="M339 2483 c-13 -16 -12 -17 4 -4 9 7 17 15 17 17 0 8 -8 3 -21 -13z"/>
<path d="M1260 2476 c0 -8 -7 -16 -15 -20 -18 -6 -20 -39 -3 -34 7 3 21 -5 30
-16 18 -21 18 -21 34 -1 14 19 13 20 -10 23 -22 3 -25 7 -19 33 3 18 1 29 -6
29 -6 0 -11 -6 -11 -14z"/>
<path d="M1438 2473 c7 -3 16 -2 19 1 4 3 -2 6 -13 5 -11 0 -14 -3 -6 -6z"/>
<path d="M1750 2450 c-9 -16 -8 -20 5 -20 8 0 15 9 15 20 0 11 -2 20 -5 20 -2
0 -9 -9 -15 -20z"/>
<path d="M1800 2450 c-9 -6 -10 -10 -3 -10 6 0 15 5 18 10 8 12 4 12 -15 0z"/>
<path d="M1385 2440 c-3 -5 -1 -10 4 -10 6 0 11 5 11 10 0 6 -2 10 -4 10 -3 0
-8 -4 -11 -10z"/>
<path d="M1908 2416 c-10 -14 -18 -30 -18 -35 0 -6 -4 -11 -10 -11 -5 0 -10
-7 -10 -15 0 -18 5 -18 31 -5 10 6 19 16 19 23 0 9 18 12 65 10 69 -3 105 8
105 32 0 10 -11 14 -37 14 -21 -1 -58 2 -83 5 -40 6 -47 4 -62 -18z"/>
<path d="M2932 2417 c-6 -7 -8 -18 -4 -24 5 -7 11 -3 19 13 12 26 3 33 -15 11z"/>
<path d="M1231 2401 c-8 -5 -11 -16 -8 -25 7 -17 27 -22 27 -7 0 5 3 16 6 25
7 18 -4 20 -25 7z"/>
<path d="M2105 2379 c-4 -6 -5 -12 -2 -15 2 -3 7 2 10 11 7 17 1 20 -8 4z"/>
<path d="M2050 2346 c0 -8 6 -16 13 -18 16 -7 37 1 37 14 0 6 -6 6 -15 -2 -12
-10 -15 -10 -15 4 0 9 -4 16 -10 16 -5 0 -10 -6 -10 -14z"/>
<path d="M1200 2340 c0 -5 7 -10 15 -10 8 0 15 5 15 10 0 6 -7 10 -15 10 -8 0
-15 -4 -15 -10z"/>
<path d="M2145 2300 c3 -5 10 -10 16 -10 5 0 9 5 9 10 0 6 -7 10 -16 10 -8 0
-12 -4 -9 -10z"/>
<path d="M2716 2283 c9 -39 13 -41 30 -18 13 18 13 21 -3 32 -26 20 -34 16
-27 -14z"/>
<path d="M2785 2300 c3 -5 10 -10 16 -10 5 0 9 5 9 10 0 6 -7 10 -16 10 -8 0
-12 -4 -9 -10z"/>
<path d="M2779 2261 c6 -10 25 -21 43 -25 18 -3 42 -18 54 -33 19 -24 44 -26
44 -4 0 8 -131 81 -144 81 -4 0 -2 -8 3 -19z"/>
<path d="M4291 2224 c0 -11 3 -14 6 -6 3 7 2 16 -1 19 -3 4 -6 -2 -5 -13z"/>
<path d="M2682 2190 c-34 -21 -45 -38 -13 -20 28 14 36 12 21 -5 -10 -13 -9
-15 8 -15 12 0 23 9 27 21 11 33 -7 41 -43 19z"/>
<path d="M3450 2192 c0 -12 19 -26 26 -19 2 2 -2 10 -11 17 -9 8 -15 8 -15 2z"/>
<path d="M2908 2166 c-21 -15 -23 -26 -5 -26 22 0 43 18 32 29 -7 6 -16 5 -27
-3z"/>
<path d="M3275 2170 c-3 -5 -1 -10 4 -10 6 0 11 5 11 10 0 6 -2 10 -4 10 -3 0
-8 -4 -11 -10z"/>
<path d="M3750 2170 c0 -5 7 -10 15 -10 8 0 15 5 15 10 0 6 -7 10 -15 10 -8 0
-15 -4 -15 -10z"/>
<path d="M2390 2140 c0 -5 5 -10 11 -10 5 0 7 5 4 10 -3 6 -8 10 -11 10 -2 0
-4 -4 -4 -10z"/>
<path d="M3605 2141 c-6 -11 9 -23 19 -14 9 9 7 23 -3 23 -6 0 -12 -4 -16 -9z"/>
<path d="M2584 2121 c9 -14 -15 -28 -61 -36 -23 -3 -44 -13 -47 -21 -3 -7 -12
-11 -21 -8 -29 12 -15 -11 16 -25 25 -11 39 -11 71 -2 22 7 42 10 45 7 3 -3
-6 -8 -21 -12 -35 -8 -33 -20 5 -33 26 -9 36 -8 58 8 14 10 41 22 59 26 44 9
41 25 -5 26 -37 1 -38 1 -11 11 24 8 26 12 14 24 -8 8 -28 14 -44 14 -17 0
-32 6 -36 15 -3 8 -10 15 -16 15 -6 0 -9 -4 -6 -9z"/>
<path d="M3061 2108 c3 -28 -2 -36 -31 -47 -36 -12 -36 -13 -7 -73 20 -41 25
-46 39 -35 9 6 19 25 22 41 l7 29 23 -31 c12 -18 35 -43 49 -58 15 -15 24 -30
21 -35 -8 -13 -24 -11 -24 4 0 7 -9 18 -19 24 -29 18 -36 -12 -11 -47 11 -15
20 -32 20 -37 0 -5 20 -15 46 -22 43 -13 46 -12 72 10 15 13 29 25 31 26 8 5
10 63 2 63 -5 0 -12 16 -16 36 -8 43 -15 39 -21 -12 -6 -52 -13 -74 -25 -74
-12 0 -2 99 11 115 8 9 -7 24 -57 57 -127 83 -135 88 -132 66z"/>
<path d="M2868 2073 c6 -2 18 -2 25 0 6 3 1 5 -13 5 -14 0 -19 -2 -12 -5z"/>
<path d="M3170 2070 c0 -5 4 -10 9 -10 6 0 13 5 16 10 3 6 -1 10 -9 10 -9 0
-16 -4 -16 -10z"/>
<path d="M2910 2039 c0 -5 5 -7 10 -4 6 3 10 8 10 11 0 2 -4 4 -10 4 -5 0 -10
-5 -10 -11z"/>
<path d="M2770 2029 c0 -5 5 -7 10 -4 6 3 10 8 10 11 0 2 -4 4 -10 4 -5 0 -10
-5 -10 -11z"/>
<path d="M2270 2022 c0 -4 17 -17 38 -30 21 -13 63 -48 94 -78 l57 -55 30 15
c34 18 55 21 46 6 -3 -5 1 -10 9 -10 9 0 16 3 16 8 -1 12 -95 72 -116 72 -10
0 -30 9 -44 20 -14 11 -30 20 -37 20 -7 0 -16 6 -20 13 -9 15 -73 31 -73 19z"/>
<path d="M3530 1975 c0 -8 5 -15 10 -15 6 0 10 7 10 15 0 8 -4 15 -10 15 -5 0
-10 -7 -10 -15z"/>
<path d="M2930 1940 c0 -5 5 -10 11 -10 5 0 7 5 4 10 -3 6 -8 10 -11 10 -2 0
-4 -4 -4 -10z"/>
<path d="M3460 1940 c0 -5 5 -10 11 -10 5 0 7 5 4 10 -3 6 -8 10 -11 10 -2 0
-4 -4 -4 -10z"/>
<path d="M2747 1895 c-9 -23 9 -26 28 -5 17 19 17 20 -2 20 -12 0 -23 -7 -26
-15z"/>
<path d="M3415 1890 c-3 -5 -2 -10 4 -10 5 0 13 5 16 10 3 6 2 10 -4 10 -5 0
-13 -4 -16 -10z"/>
<path d="M2546 1831 c-3 -5 -16 -7 -29 -4 -20 5 -21 4 -7 -10 18 -19 60 -12
60 9 0 16 -16 19 -24 5z"/>
<path d="M2765 1830 c3 -5 8 -10 11 -10 2 0 4 5 4 10 0 6 -5 10 -11 10 -5 0
-7 -4 -4 -10z"/>
<path d="M2776 1785 c4 -8 10 -15 15 -15 4 0 6 7 3 15 -4 8 -10 15 -15 15 -4
0 -6 -7 -3 -15z"/>
<path d="M2408 1755 c-15 -12 -33 -25 -40 -28 -7 -2 -10 -8 -6 -12 9 -10 48 4
48 17 0 6 8 17 17 24 10 7 16 15 13 17 -3 3 -17 -5 -32 -18z"/>
<path d="M2770 1751 c0 -3 7 -15 15 -25 8 -11 15 -28 15 -38 0 -9 9 -22 21
-28 32 -18 46 1 40 52 -6 43 -6 43 -48 44 -24 1 -43 -1 -43 -5z"/>
<path d="M2208 1713 c-10 -2 -18 -9 -18 -14 0 -6 5 -7 12 -3 6 4 16 0 23 -9 7
-9 29 -17 54 -18 23 -2 45 -7 47 -11 8 -13 24 -9 24 5 0 9 -22 19 -55 26 -30
7 -55 17 -55 22 0 9 -4 10 -32 2z"/>
<path d="M2920 1570 c-14 -11 -20 -20 -14 -20 12 0 44 -63 44 -88 0 -14 2 -15
9 -2 6 8 7 19 3 25 -4 5 -9 31 -12 57 l-5 47 -25 -19z"/>
<path d="M623 1444 c-24 -37 -79 -68 -148 -84 l-60 -13 40 -12 40 -11 -50 -6
c-33 -4 -53 -2 -58 5 -6 9 -10 9 -13 0 -4 -9 -12 -9 -27 -2 -25 11 -77 -3 -77
-21 0 -5 -7 -10 -16 -10 -33 0 -157 -150 -147 -177 5 -11 3 -14 -6 -8 -9 5
-12 2 -9 -11 2 -10 -7 -30 -20 -44 l-24 -25 24 -5 c22 -6 22 -6 3 -15 -11 -4
-23 -8 -26 -7 -3 1 -6 -11 -6 -26 0 -15 -2 -51 -5 -80 -3 -28 -2 -55 3 -57 4
-3 6 -12 3 -20 -6 -14 64 -167 88 -195 27 -31 101 -71 158 -86 55 -14 65 -14
122 2 119 32 192 92 256 211 46 86 67 277 40 365 -14 48 -39 60 -98 47 -36 -8
-44 -7 -56 8 -14 18 -19 53 -8 53 3 0 15 -11 26 -25 22 -28 40 -32 57 -11 10
12 7 18 -16 30 -16 8 -35 26 -43 40 -12 24 -11 28 12 54 14 15 29 38 33 52 5
20 3 19 -15 -9 -12 -19 -28 -40 -36 -48 -8 -8 -14 -21 -14 -28 0 -8 -5 -26
-11 -42 -7 -15 -14 -46 -16 -68 -3 -22 -9 -45 -15 -53 -8 -9 -7 -11 6 -6 24 9
21 -23 -4 -36 -24 -13 -40 -6 -40 18 -1 15 -2 15 -15 -2 -20 -27 -19 -16 5 40
11 26 19 51 18 55 -2 5 -23 -5 -48 -21 -45 -30 -70 -38 -70 -22 0 17 37 42 61
42 43 0 84 35 119 101 18 35 47 87 64 114 46 72 48 75 42 75 -3 0 -13 -12 -23
-26z m-118 -194 c-4 -6 -25 -10 -48 -10 -23 1 -62 -4 -86 -10 -54 -13 -65 -6
-20 14 40 17 164 22 154 6z m-240 -60 c-3 -5 -11 -10 -16 -10 -6 0 -7 5 -4 10
3 6 11 10 16 10 6 0 7 -4 4 -10z m-35 -19 c0 -5 -12 -12 -27 -16 -15 -3 -30
-10 -33 -14 -9 -14 -50 -23 -50 -12 0 6 7 11 16 11 9 0 27 9 41 20 27 21 53
26 53 11z m140 -60 c0 -15 -38 -20 -44 -5 -4 10 2 14 19 14 14 0 25 -4 25 -9z
m-67 -32 c-4 -13 -9 -17 -15 -11 -11 11 -3 32 12 32 4 0 6 -9 3 -21z m-138
-29 c-27 -12 -43 -12 -25 0 8 5 22 9 30 9 10 0 8 -3 -5 -9z m266 -17 c-12 -20
-14 -14 -5 12 4 9 9 14 11 11 3 -2 0 -13 -6 -23z m97 11 c-9 -9 -22 -14 -30
-11 -8 3 -4 8 12 15 35 15 37 14 18 -4z m-248 -4 c0 -5 -4 -10 -10 -10 -5 0
-10 5 -10 10 0 6 5 10 10 10 6 0 10 -4 10 -10z m64 2 c10 -17 -25 -44 -63 -49
-33 -5 -41 -3 -41 11 0 9 8 16 18 16 10 0 27 7 38 15 21 16 40 19 48 7z m-107
-68 c2 -6 -3 -11 -12 -11 -8 0 -15 7 -15 15 0 15 22 12 27 -4z m175 -12 c-7
-2 -12 -8 -12 -13 0 -6 4 -8 8 -5 5 3 14 -10 20 -29 8 -29 8 -35 -5 -35 -9 0
-13 -6 -10 -14 3 -8 -2 -16 -14 -19 -15 -4 -19 0 -19 23 0 23 4 27 20 23 23
-6 27 12 5 21 -18 7 -19 29 -3 59 8 17 13 18 16 7 3 -7 0 -16 -6 -18z m-87
-61 c-14 -12 -73 -25 -60 -13 6 6 21 12 35 15 14 2 27 5 30 6 2 0 0 -3 -5 -8z
m-238 -7 c-3 -3 -12 -4 -19 -1 -8 3 -5 6 6 6 11 1 17 -2 13 -5z m93 -29 c-7
-9 -15 -13 -18 -10 -3 2 1 11 8 20 7 9 15 13 18 10 3 -2 -1 -11 -8 -20z m55
15 c-3 -5 -11 -10 -16 -10 -6 0 -7 5 -4 10 3 6 11 10 16 10 6 0 7 -4 4 -10z
m227 -47 c-7 -3 -19 -11 -27 -20 -20 -19 -19 -8 1 23 13 19 20 22 28 13 8 -8
8 -13 -2 -16z"/>
<path d="M3370 1360 c-8 -5 -12 -12 -9 -15 4 -3 12 1 19 10 14 17 11 19 -10 5z"/>
<path d="M3152 1318 c3 -7 13 -15 22 -16 12 -3 17 1 14 10 -3 7 -13 15 -22 16
-12 3 -17 -1 -14 -10z"/>
<path d="M3028 1295 c-21 -27 -22 -35 -8 -35 6 0 10 7 10 15 0 8 7 15 15 15 8
0 15 7 15 15 0 22 -12 18 -32 -10z"/>
<path d="M3100 1305 c0 -8 4 -15 9 -15 5 0 11 7 15 15 3 9 0 15 -9 15 -8 0
-15 -7 -15 -15z"/>
<path d="M3220 1304 c0 -8 5 -12 10 -9 6 3 10 10 10 16 0 5 -4 9 -10 9 -5 0
-10 -7 -10 -16z"/>
<path d="M3330 1310 c0 -5 7 -10 16 -10 8 0 12 5 9 10 -3 6 -10 10 -16 10 -5
0 -9 -4 -9 -10z"/>
<path d="M3176 1283 c-12 -12 -6 -33 9 -33 8 0 15 6 15 14 0 17 -14 28 -24 19z"/>
<path d="M3505 1279 c-4 -6 -5 -12 -2 -15 7 -7 37 7 37 17 0 13 -27 11 -35 -2z"/>
<path d="M3111 1256 c-7 -8 -8 -17 -3 -20 6 -3 15 1 21 8 7 8 8 17 3 20 -6 3
-15 -1 -21 -8z"/>
<path d="M3292 1258 c6 -18 28 -21 28 -4 0 9 -7 16 -16 16 -9 0 -14 -5 -12
-12z"/>
<path d="M3446 1241 c-3 -5 1 -11 9 -15 9 -3 15 0 15 9 0 16 -16 20 -24 6z"/>
<path d="M3500 1240 c0 -5 7 -10 16 -10 8 0 12 5 9 10 -3 6 -10 10 -16 10 -5
0 -9 -4 -9 -10z"/>
<path d="M3362 1214 c-12 -8 -22 -20 -22 -27 0 -8 3 -8 12 1 7 7 20 12 30 12
10 0 18 4 18 9 0 18 -17 20 -38 5z"/>
<path d="M3156 1212 c-4 -3 3 -14 16 -24 13 -10 17 -18 11 -18 -18 0 -16 -20
2 -20 8 0 16 7 17 15 0 8 1 20 2 26 1 14 -39 31 -48 21z"/>
<path d="M3430 1200 c0 -5 7 -10 16 -10 8 0 12 5 9 10 -3 6 -10 10 -16 10 -5
0 -9 -4 -9 -10z"/>
<path d="M3260 1190 c0 -5 5 -10 10 -10 6 0 10 5 10 10 0 6 -4 10 -10 10 -5 0
-10 -4 -10 -10z"/>
<path d="M3135 1170 c-3 -5 -2 -10 4 -10 5 0 13 5 16 10 3 6 2 10 -4 10 -5 0
-13 -4 -16 -10z"/>
<path d="M2965 1149 c-4 -12 -2 -26 4 -32 16 -16 26 0 11 18 -10 13 -9 15 9
15 11 0 21 5 21 10 0 19 -39 10 -45 -11z"/>
<path d="M3090 1140 c0 -5 5 -10 10 -10 6 0 10 5 10 10 0 6 -4 10 -10 10 -5 0
-10 -4 -10 -10z"/>
<path d="M2826 1105 c-9 -26 -7 -32 5 -12 6 10 9 21 6 23 -2 3 -7 -2 -11 -11z"/>
<path d="M3086 983 c-11 -11 -6 -23 9 -23 8 0 15 4 15 9 0 13 -16 22 -24 14z"/>
<path d="M2900 955 c0 -9 5 -15 11 -13 6 2 11 8 11 13 0 5 -5 11 -11 13 -6 2
-11 -4 -11 -13z"/>
<path d="M2825 939 c-10 -15 1 -23 20 -15 9 3 13 10 10 16 -8 13 -22 13 -30
-1z"/>
<path d="M2800 830 c0 -5 7 -7 15 -4 8 4 15 8 15 10 0 2 -7 4 -15 4 -8 0 -15
-4 -15 -10z"/>
<path d="M3660 789 c0 -12 5 -19 12 -17 18 6 20 25 3 31 -10 5 -15 0 -15 -14z"/>
<path d="M3220 725 c-18 -19 -30 -35 -24 -35 15 1 66 50 62 61 -2 5 -19 -6
-38 -26z"/>
<path d="M3615 573 c-4 -15 -11 -39 -16 -52 l-10 -24 28 18 c15 10 37 24 48
32 11 7 29 13 40 13 13 1 8 5 -15 14 -19 7 -43 17 -52 21 -13 5 -19 0 -23 -22z"/>
<path d="M3320 517 c-11 -46 -17 -57 -39 -62 -23 -6 -24 -8 -8 -17 10 -5 16
-17 13 -26 -2 -9 -7 -30 -10 -45 -7 -28 -7 -28 19 -11 13 9 32 14 40 10 8 -3
15 -1 15 4 0 5 28 21 62 37 l61 27 -28 21 c-16 11 -35 29 -44 39 -9 10 -28 32
-42 49 l-25 30 -14 -56z m80 -59 c0 -5 -12 -13 -27 -18 -16 -6 -36 -15 -47
-21 -15 -9 -15 -5 5 21 13 18 29 38 34 46 8 12 12 12 23 -3 6 -9 12 -21 12
-25z"/>
<path d="M3445 500 c3 -5 8 -10 11 -10 2 0 4 5 4 10 0 6 -5 10 -11 10 -5 0 -7
-4 -4 -10z"/>
<path d="M3476 438 c10 -20 22 -28 40 -28 33 0 29 33 -4 38 -12 2 -20 7 -17
12 3 5 -3 8 -14 7 -18 -1 -18 -3 -5 -29z"/>
<path d="M3533 383 c9 -9 19 -14 23 -11 10 10 -6 28 -24 28 -15 0 -15 -1 1
-17z"/>
<path d="M3785 299 c-4 -6 -4 -13 -1 -16 8 -8 36 5 36 17 0 13 -27 13 -35 -1z"/>
<path d="M3126 170 c43 -32 56 -37 48 -17 -4 12 -65 47 -81 47 -4 0 11 -13 33
-30z"/>
</g>
</svg>
